<svg width="46" height="18" viewBox="0 0 46 18" fill="none" xmlns="http://www.w3.org/2000/svg">
<rect x="0.5" y="0.5" width="45" height="17" rx="7.5" fill="#D9D9D9" stroke="#B33535"/>
<mask id="path-2-outside-1_0_1" maskUnits="userSpaceOnUse" x="4" y="3" width="32" height="14" fill="black">
<rect fill="white" x="4" y="3" width="32" height="14"/>
<path d="M6.92614 4.27273V13H5.92045V4.27273H6.92614ZM11.4272 13.1364C10.8363 13.1364 10.3178 12.9957 9.8718 12.7145C9.42862 12.4332 9.08203 12.0398 8.83203 11.5341C8.58487 11.0284 8.46129 10.4375 8.46129 9.76136C8.46129 9.07955 8.58487 8.48437 8.83203 7.97585C9.08203 7.46733 9.42862 7.07244 9.8718 6.79119C10.3178 6.50994 10.8363 6.36932 11.4272 6.36932C12.0181 6.36932 12.5352 6.50994 12.9783 6.79119C13.4244 7.07244 13.771 7.46733 14.0181 7.97585C14.2681 8.48437 14.3931 9.07955 14.3931 9.76136C14.3931 10.4375 14.2681 11.0284 14.0181 11.5341C13.771 12.0398 13.4244 12.4332 12.9783 12.7145C12.5352 12.9957 12.0181 13.1364 11.4272 13.1364ZM11.4272 12.233C11.8761 12.233 12.2454 12.1179 12.5352 11.8878C12.8249 11.6577 13.0394 11.3551 13.1786 10.9801C13.3178 10.6051 13.3874 10.1989 13.3874 9.76136C13.3874 9.32386 13.3178 8.91619 13.1786 8.53835C13.0394 8.16051 12.8249 7.85511 12.5352 7.62216C12.2454 7.3892 11.8761 7.27273 11.4272 7.27273C10.9783 7.27273 10.609 7.3892 10.3192 7.62216C10.0295 7.85511 9.81499 8.16051 9.67578 8.53835C9.53658 8.91619 9.46697 9.32386 9.46697 9.76136C9.46697 10.1989 9.53658 10.6051 9.67578 10.9801C9.81499 11.3551 10.0295 11.6577 10.3192 11.8878C10.609 12.1179 10.9783 12.233 11.4272 12.233ZM18.5703 15.5909C18.0845 15.5909 17.6669 15.5284 17.3175 15.4034C16.968 15.2812 16.6768 15.1193 16.4439 14.9176C16.2138 14.7188 16.0305 14.5057 15.8942 14.2784L16.6953 13.7159C16.7862 13.8352 16.9013 13.9716 17.0405 14.125C17.1797 14.2812 17.37 14.4162 17.6115 14.5298C17.8558 14.6463 18.1754 14.7045 18.5703 14.7045C19.0987 14.7045 19.5348 14.5767 19.8786 14.321C20.2223 14.0653 20.3942 13.6648 20.3942 13.1193V11.7898H20.3089C20.2351 11.9091 20.13 12.0568 19.9936 12.233C19.8601 12.4062 19.6669 12.5611 19.4141 12.6974C19.1641 12.831 18.826 12.8977 18.3999 12.8977C17.8714 12.8977 17.397 12.7727 16.9766 12.5227C16.5589 12.2727 16.228 11.9091 15.9837 11.4318C15.7422 10.9545 15.6214 10.375 15.6214 9.69318C15.6214 9.02273 15.7393 8.43892 15.9751 7.94176C16.2109 7.44176 16.5391 7.0554 16.9595 6.78267C17.38 6.5071 17.8658 6.36932 18.4169 6.36932C18.843 6.36932 19.1811 6.44034 19.4311 6.58239C19.6839 6.72159 19.8771 6.88068 20.0107 7.05966C20.147 7.2358 20.2521 7.38068 20.326 7.49432H20.4283V6.45455H21.3999V13.1875C21.3999 13.75 21.272 14.2074 21.0163 14.5597C20.7635 14.9148 20.4226 15.1747 19.9936 15.3395C19.5675 15.5071 19.093 15.5909 18.5703 15.5909ZM18.5362 11.9943C18.9396 11.9943 19.2805 11.902 19.5589 11.7173C19.8374 11.5327 20.049 11.267 20.1939 10.9205C20.3388 10.5739 20.4112 10.1591 20.4112 9.67614C20.4112 9.20455 20.3402 8.78835 20.1982 8.42756C20.0561 8.06676 19.8459 7.78409 19.5675 7.57955C19.2891 7.375 18.9453 7.27273 18.5362 7.27273C18.1101 7.27273 17.755 7.38068 17.4709 7.59659C17.1896 7.8125 16.978 8.10227 16.8359 8.46591C16.6967 8.82955 16.6271 9.23295 16.6271 9.67614C16.6271 10.1307 16.6982 10.5327 16.8402 10.8821C16.9851 11.2287 17.1982 11.5014 17.4794 11.7003C17.7635 11.8963 18.1158 11.9943 18.5362 11.9943ZM26.6158 13V6.45455H27.6214V13H26.6158ZM27.1271 5.36364C26.9311 5.36364 26.7621 5.29688 26.62 5.16335C26.4808 5.02983 26.4112 4.86932 26.4112 4.68182C26.4112 4.49432 26.4808 4.33381 26.62 4.20028C26.7621 4.06676 26.9311 4 27.1271 4C27.3232 4 27.4908 4.06676 27.63 4.20028C27.772 4.33381 27.843 4.49432 27.843 4.68182C27.843 4.86932 27.772 5.02983 27.63 5.16335C27.4908 5.29688 27.3232 5.36364 27.1271 5.36364ZM30.4691 9.0625V13H29.4634V6.45455H30.435V7.47727H30.5202C30.6737 7.14489 30.9066 6.87784 31.2191 6.67614C31.5316 6.47159 31.935 6.36932 32.4293 6.36932C32.8725 6.36932 33.2603 6.46023 33.5927 6.64205C33.9251 6.82102 34.1836 7.09375 34.3683 7.46023C34.5529 7.82386 34.6452 8.28409 34.6452 8.84091V13H33.6396V8.90909C33.6396 8.39489 33.506 7.99432 33.239 7.70739C32.9719 7.41761 32.6055 7.27273 32.1396 7.27273C31.8185 7.27273 31.5316 7.34233 31.2788 7.48153C31.0288 7.62074 30.8313 7.82386 30.6864 8.09091C30.5415 8.35795 30.4691 8.68182 30.4691 9.0625Z"/>
</mask>
<path d="M6.92614 4.27273V13H5.92045V4.27273H6.92614ZM11.4272 13.1364C10.8363 13.1364 10.3178 12.9957 9.8718 12.7145C9.42862 12.4332 9.08203 12.0398 8.83203 11.5341C8.58487 11.0284 8.46129 10.4375 8.46129 9.76136C8.46129 9.07955 8.58487 8.48437 8.83203 7.97585C9.08203 7.46733 9.42862 7.07244 9.8718 6.79119C10.3178 6.50994 10.8363 6.36932 11.4272 6.36932C12.0181 6.36932 12.5352 6.50994 12.9783 6.79119C13.4244 7.07244 13.771 7.46733 14.0181 7.97585C14.2681 8.48437 14.3931 9.07955 14.3931 9.76136C14.3931 10.4375 14.2681 11.0284 14.0181 11.5341C13.771 12.0398 13.4244 12.4332 12.9783 12.7145C12.5352 12.9957 12.0181 13.1364 11.4272 13.1364ZM11.4272 12.233C11.8761 12.233 12.2454 12.1179 12.5352 11.8878C12.8249 11.6577 13.0394 11.3551 13.1786 10.9801C13.3178 10.6051 13.3874 10.1989 13.3874 9.76136C13.3874 9.32386 13.3178 8.91619 13.1786 8.53835C13.0394 8.16051 12.8249 7.85511 12.5352 7.62216C12.2454 7.3892 11.8761 7.27273 11.4272 7.27273C10.9783 7.27273 10.609 7.3892 10.3192 7.62216C10.0295 7.85511 9.81499 8.16051 9.67578 8.53835C9.53658 8.91619 9.46697 9.32386 9.46697 9.76136C9.46697 10.1989 9.53658 10.6051 9.67578 10.9801C9.81499 11.3551 10.0295 11.6577 10.3192 11.8878C10.609 12.1179 10.9783 12.233 11.4272 12.233ZM18.5703 15.5909C18.0845 15.5909 17.6669 15.5284 17.3175 15.4034C16.968 15.2812 16.6768 15.1193 16.4439 14.9176C16.2138 14.7188 16.0305 14.5057 15.8942 14.2784L16.6953 13.7159C16.7862 13.8352 16.9013 13.9716 17.0405 14.125C17.1797 14.2812 17.37 14.4162 17.6115 14.5298C17.8558 14.6463 18.1754 14.7045 18.5703 14.7045C19.0987 14.7045 19.5348 14.5767 19.8786 14.321C20.2223 14.0653 20.3942 13.6648 20.3942 13.1193V11.7898H20.3089C20.2351 11.9091 20.13 12.0568 19.9936 12.233C19.8601 12.4062 19.6669 12.5611 19.4141 12.6974C19.1641 12.831 18.826 12.8977 18.3999 12.8977C17.8714 12.8977 17.397 12.7727 16.9766 12.5227C16.5589 12.2727 16.228 11.9091 15.9837 11.4318C15.7422 10.9545 15.6214 10.375 15.6214 9.69318C15.6214 9.02273 15.7393 8.43892 15.9751 7.94176C16.2109 7.44176 16.5391 7.0554 16.9595 6.78267C17.38 6.5071 17.8658 6.36932 18.4169 6.36932C18.843 6.36932 19.1811 6.44034 19.4311 6.58239C19.6839 6.72159 19.8771 6.88068 20.0107 7.05966C20.147 7.2358 20.2521 7.38068 20.326 7.49432H20.4283V6.45455H21.3999V13.1875C21.3999 13.75 21.272 14.2074 21.0163 14.5597C20.7635 14.9148 20.4226 15.1747 19.9936 15.3395C19.5675 15.5071 19.093 15.5909 18.5703 15.5909ZM18.5362 11.9943C18.9396 11.9943 19.2805 11.902 19.5589 11.7173C19.8374 11.5327 20.049 11.267 20.1939 10.9205C20.3388 10.5739 20.4112 10.1591 20.4112 9.67614C20.4112 9.20455 20.3402 8.78835 20.1982 8.42756C20.0561 8.06676 19.8459 7.78409 19.5675 7.57955C19.2891 7.375 18.9453 7.27273 18.5362 7.27273C18.1101 7.27273 17.755 7.38068 17.4709 7.59659C17.1896 7.8125 16.978 8.10227 16.8359 8.46591C16.6967 8.82955 16.6271 9.23295 16.6271 9.67614C16.6271 10.1307 16.6982 10.5327 16.8402 10.8821C16.9851 11.2287 17.1982 11.5014 17.4794 11.7003C17.7635 11.8963 18.1158 11.9943 18.5362 11.9943ZM26.6158 13V6.45455H27.6214V13H26.6158ZM27.1271 5.36364C26.9311 5.36364 26.7621 5.29688 26.62 5.16335C26.4808 5.02983 26.4112 4.86932 26.4112 4.68182C26.4112 4.49432 26.4808 4.33381 26.62 4.20028C26.7621 4.06676 26.9311 4 27.1271 4C27.3232 4 27.4908 4.06676 27.63 4.20028C27.772 4.33381 27.843 4.49432 27.843 4.68182C27.843 4.86932 27.772 5.02983 27.63 5.16335C27.4908 5.29688 27.3232 5.36364 27.1271 5.36364ZM30.4691 9.0625V13H29.4634V6.45455H30.435V7.47727H30.5202C30.6737 7.14489 30.9066 6.87784 31.2191 6.67614C31.5316 6.47159 31.935 6.36932 32.4293 6.36932C32.8725 6.36932 33.2603 6.46023 33.5927 6.64205C33.9251 6.82102 34.1836 7.09375 34.3683 7.46023C34.5529 7.82386 34.6452 8.28409 34.6452 8.84091V13H33.6396V8.90909C33.6396 8.39489 33.506 7.99432 33.239 7.70739C32.9719 7.41761 32.6055 7.27273 32.1396 7.27273C31.8185 7.27273 31.5316 7.34233 31.2788 7.48153C31.0288 7.62074 30.8313 7.82386 30.6864 8.09091C30.5415 8.35795 30.4691 8.68182 30.4691 9.0625Z" fill="black"/>
<path d="M6.92614 4.27273H7.92614V3.27273H6.92614V4.27273ZM6.92614 13V14H7.92614V13H6.92614ZM5.92045 13H4.92045V14H5.92045V13ZM5.92045 4.27273V3.27273H4.92045V4.27273H5.92045ZM6.92614 4.27273H5.92614V13H6.92614H7.92614V4.27273H6.92614ZM6.92614 13V12H5.92045V13V14H6.92614V13ZM5.92045 13H6.92045V4.27273H5.92045H4.92045V13H5.92045ZM5.92045 4.27273V5.27273H6.92614V4.27273V3.27273H5.92045V4.27273ZM9.8718 12.7145L9.33598 13.5588L9.33842 13.5604L9.8718 12.7145ZM8.83203 11.5341L7.93359 11.9732L7.9356 11.9773L8.83203 11.5341ZM8.83203 7.97585L7.93461 7.53466L7.93264 7.53872L8.83203 7.97585ZM9.8718 6.79119L9.33842 5.94532L9.33598 5.94686L9.8718 6.79119ZM12.9783 6.79119L12.4425 7.63553L12.445 7.63707L12.9783 6.79119ZM14.0181 7.97585L13.1187 8.41299L13.1207 8.41704L14.0181 7.97585ZM14.0181 11.5341L13.1217 11.0909L13.1197 11.095L14.0181 11.5341ZM12.9783 12.7145L12.445 11.8686L12.4425 11.8702L12.9783 12.7145ZM12.5352 11.8878L11.9133 11.1047L11.9133 11.1047L12.5352 11.8878ZM13.1786 10.9801L14.1161 11.3281L14.1161 11.3281L13.1786 10.9801ZM13.1786 8.53835L14.117 8.19265L14.117 8.19265L13.1786 8.53835ZM12.5352 7.62216L13.1617 6.84278L13.1617 6.84278L12.5352 7.62216ZM10.3192 7.62216L9.69269 6.84278L9.69269 6.84278L10.3192 7.62216ZM9.67578 8.53835L8.73744 8.19265L8.73744 8.19265L9.67578 8.53835ZM9.67578 10.9801L8.73829 11.3281L8.73829 11.3281L9.67578 10.9801ZM10.3192 11.8878L10.9411 11.1047L10.9411 11.1047L10.3192 11.8878ZM11.4272 13.1364V12.1364C11.0016 12.1364 10.6728 12.0374 10.4052 11.8686L9.8718 12.7145L9.33842 13.5604C9.96287 13.9541 10.671 14.1364 11.4272 14.1364V13.1364ZM9.8718 12.7145L10.4076 11.8702C10.1307 11.6944 9.90357 11.4451 9.72846 11.0909L8.83203 11.5341L7.9356 11.9773C8.26049 12.6344 8.72654 13.1721 9.33598 13.5588L9.8718 12.7145ZM8.83203 11.5341L9.73046 11.095C9.56226 10.7508 9.46129 10.3156 9.46129 9.76136H8.46129H7.46129C7.46129 10.5594 7.60749 11.306 7.9336 11.9732L8.83203 11.5341ZM8.46129 9.76136H9.46129C9.46129 9.20024 9.56272 8.7601 9.73143 8.41299L8.83203 7.97585L7.93264 7.53872C7.60703 8.20865 7.46129 8.95885 7.46129 9.76136H8.46129ZM8.83203 7.97585L9.72945 8.41704C9.90499 8.05997 10.1321 7.81037 10.4076 7.63552L9.8718 6.79119L9.33598 5.94686C8.72514 6.33451 8.25907 6.87469 7.93462 7.53466L8.83203 7.97585ZM9.8718 6.79119L10.4052 7.63707C10.6728 7.46833 11.0016 7.36932 11.4272 7.36932V6.36932V5.36932C10.671 5.36932 9.96287 5.55156 9.33842 5.94532L9.8718 6.79119ZM11.4272 6.36932V7.36932C11.8529 7.36932 12.1791 7.46836 12.4425 7.63552L12.9783 6.79119L13.5142 5.94686C12.8912 5.55153 12.1833 5.36932 11.4272 5.36932V6.36932ZM12.9783 6.79119L12.445 7.63707C12.7218 7.81163 12.9469 8.05955 13.1187 8.41299L14.0181 7.97585L14.9175 7.53872C14.595 6.87511 14.1269 6.33326 13.5117 5.94532L12.9783 6.79119ZM14.0181 7.97585L13.1207 8.41704C13.2909 8.76315 13.3931 9.20181 13.3931 9.76136H14.3931H15.3931C15.3931 8.95728 15.2454 8.2056 14.9155 7.53466L14.0181 7.97585ZM14.3931 9.76136H13.3931C13.3931 10.314 13.2913 10.7478 13.1217 11.0909L14.0181 11.5341L14.9145 11.9773C15.2449 11.3091 15.3931 10.561 15.3931 9.76136H14.3931ZM14.0181 11.5341L13.1197 11.095C12.9483 11.4455 12.7232 11.6932 12.445 11.8686L12.9783 12.7145L13.5117 13.5604C14.1255 13.1733 14.5936 12.634 14.9165 11.9732L14.0181 11.5341ZM12.9783 12.7145L12.4425 11.8702C12.1791 12.0373 11.8529 12.1364 11.4272 12.1364V13.1364V14.1364C12.1833 14.1364 12.8912 13.9542 13.5142 13.5588L12.9783 12.7145ZM11.4272 12.233V13.233C12.0522 13.233 12.6551 13.0695 13.157 12.6709L12.5352 11.8878L11.9133 11.1047C11.8357 11.1663 11.6999 11.233 11.4272 11.233V12.233ZM12.5352 11.8878L13.157 12.6709C13.6013 12.3181 13.9187 11.8599 14.1161 11.3281L13.1786 10.9801L12.2411 10.6321C12.1601 10.8504 12.0486 10.9972 11.9133 11.1047L12.5352 11.8878ZM13.1786 10.9801L14.1161 11.3281C14.3004 10.8318 14.3874 10.3065 14.3874 9.76136H13.3874H12.3874C12.3874 10.0912 12.3353 10.3785 12.2411 10.6321L13.1786 10.9801ZM13.3874 9.76136H14.3874C14.3874 9.21612 14.3003 8.69039 14.117 8.19265L13.1786 8.53835L12.2403 8.88406C12.3353 9.142 12.3874 9.43161 12.3874 9.76136H13.3874ZM13.1786 8.53835L14.117 8.19265C13.9205 7.65928 13.6045 7.19874 13.1617 6.84278L12.5352 7.62216L11.9086 8.40153C12.0454 8.51149 12.1584 8.66174 12.2403 8.88406L13.1786 8.53835ZM12.5352 7.62216L13.1617 6.84278C12.6596 6.43915 12.055 6.27273 11.4272 6.27273V7.27273V8.27273C11.6971 8.27273 11.8311 8.33926 11.9086 8.40153L12.5352 7.62216ZM11.4272 7.27273V6.27273C10.7994 6.27273 10.1948 6.43915 9.69269 6.84278L10.3192 7.62216L10.9458 8.40153C11.0233 8.33926 11.1573 8.27273 11.4272 8.27273V7.27273ZM10.3192 7.62216L9.69269 6.84278C9.24992 7.19874 8.93394 7.65928 8.73744 8.19265L9.67578 8.53835L10.6141 8.88406C10.696 8.66174 10.809 8.51149 10.9458 8.40153L10.3192 7.62216ZM9.67578 8.53835L8.73744 8.19265C8.55406 8.69039 8.46697 9.21612 8.46697 9.76136H9.46697H10.467C10.467 9.43161 10.5191 9.142 10.6141 8.88406L9.67578 8.53835ZM9.46697 9.76136H8.46697C8.46697 10.3065 8.55404 10.8318 8.73829 11.3281L9.67578 10.9801L10.6133 10.6321C10.5191 10.3785 10.467 10.0912 10.467 9.76136H9.46697ZM9.67578 10.9801L8.73829 11.3281C8.93568 11.8599 9.25311 12.3181 9.69737 12.6709L10.3192 11.8878L10.9411 11.1047C10.8058 10.9972 10.6943 10.8504 10.6133 10.6321L9.67578 10.9801ZM10.3192 11.8878L9.69736 12.6709C10.1993 13.0695 10.8022 13.233 11.4272 13.233V12.233V11.233C11.1545 11.233 11.0187 11.1663 10.9411 11.1047L10.3192 11.8878ZM17.3175 15.4034L17.6543 14.4618L17.6475 14.4594L17.3175 15.4034ZM16.4439 14.9176L17.0985 14.1616L17.0978 14.161L16.4439 14.9176ZM15.8942 14.2784L15.3195 13.46L14.5578 13.9948L15.0367 14.7929L15.8942 14.2784ZM16.6953 13.7159L17.4907 13.1099L16.9078 12.3448L16.1207 12.8975L16.6953 13.7159ZM17.0405 14.125L17.7872 13.4598L17.781 13.453L17.0405 14.125ZM17.6115 14.5298L18.0419 13.6272L18.0373 13.625L17.6115 14.5298ZM19.8786 14.321L20.4754 15.1234L20.4754 15.1234L19.8786 14.321ZM20.3942 11.7898H21.3942V10.7898H20.3942V11.7898ZM20.3089 11.7898V10.7898H19.7519L19.4587 11.2634L20.3089 11.7898ZM19.9936 12.233L19.2029 11.6208L19.2015 11.6226L19.9936 12.233ZM19.4141 12.6974L19.8852 13.5795L19.8888 13.5776L19.4141 12.6974ZM16.9766 12.5227L16.4629 13.3807L16.4655 13.3823L16.9766 12.5227ZM15.9837 11.4318L15.0914 11.8833L15.0935 11.8875L15.9837 11.4318ZM15.9751 7.94176L16.8787 8.37029L16.8796 8.3683L15.9751 7.94176ZM16.9595 6.78267L17.5037 7.62164L17.5077 7.61904L16.9595 6.78267ZM19.4311 6.58239L18.9371 7.45192L18.9488 7.45839L19.4311 6.58239ZM20.0107 7.05966L19.2091 7.65762L19.2145 7.66477L19.2199 7.67183L20.0107 7.05966ZM20.326 7.49432L19.4876 8.03931L19.7833 8.49432H20.326V7.49432ZM20.4283 7.49432V8.49432H21.4283V7.49432H20.4283ZM20.4283 6.45455V5.45455H19.4283V6.45455H20.4283ZM21.3999 6.45455H22.3999V5.45455H21.3999V6.45455ZM21.0163 14.5597L20.207 13.9722L20.2017 13.9797L21.0163 14.5597ZM19.9936 15.3395L19.635 14.406L19.6276 14.4089L19.9936 15.3395ZM19.5589 11.7173L19.0062 10.884L19.0062 10.884L19.5589 11.7173ZM20.1939 10.9205L21.1165 11.3061L21.1165 11.3061L20.1939 10.9205ZM20.1982 8.42756L21.1286 8.06122L21.1286 8.06122L20.1982 8.42756ZM19.5675 7.57955L18.9754 8.38543L18.9754 8.38543L19.5675 7.57955ZM17.4709 7.59659L16.8658 6.80042L16.8619 6.80337L17.4709 7.59659ZM16.8359 8.46591L15.9045 8.10205L15.902 8.1084L16.8359 8.46591ZM16.8402 10.8821L15.9138 11.2587L15.9176 11.2678L16.8402 10.8821ZM17.4794 11.7003L16.902 12.5168L16.9115 12.5234L17.4794 11.7003ZM18.5703 15.5909V14.5909C18.1658 14.5909 17.868 14.5383 17.6543 14.4618L17.3175 15.4034L16.9807 16.345C17.4658 16.5185 18.0032 16.5909 18.5703 16.5909V15.5909ZM17.3175 15.4034L17.6475 14.4594C17.3937 14.3707 17.219 14.266 17.0985 14.1616L16.4439 14.9176L15.7893 15.6736C16.1347 15.9727 16.5423 16.1918 16.9875 16.3474L17.3175 15.4034ZM16.4439 14.9176L17.0978 14.161C16.9363 14.0215 16.8261 13.8879 16.7517 13.7639L15.8942 14.2784L15.0367 14.7929C15.235 15.1235 15.4912 15.416 15.79 15.6742L16.4439 14.9176ZM15.8942 14.2784L16.4688 15.0968L17.2699 14.5343L16.6953 13.7159L16.1207 12.8975L15.3195 13.46L15.8942 14.2784ZM16.6953 13.7159L15.8999 14.322C16.0132 14.4707 16.1481 14.6297 16.2999 14.797L17.0405 14.125L17.781 13.453C17.6544 13.3135 17.5592 13.1997 17.4907 13.1099L16.6953 13.7159ZM17.0405 14.125L16.2938 14.7902C16.5438 15.0707 16.8545 15.2788 17.1857 15.4346L17.6115 14.5298L18.0373 13.625C17.8856 13.5536 17.8156 13.4918 17.7871 13.4598L17.0405 14.125ZM17.6115 14.5298L17.1812 15.4325C17.6071 15.6356 18.0896 15.7045 18.5703 15.7045V14.7045V13.7045C18.2613 13.7045 18.1046 13.6571 18.0418 13.6272L17.6115 14.5298ZM18.5703 14.7045V15.7045C19.2626 15.7045 19.9222 15.5349 20.4754 15.1234L19.8786 14.321L19.2817 13.5186C19.1474 13.6185 18.9348 13.7045 18.5703 13.7045V14.7045ZM19.8786 14.321L20.4754 15.1234C21.1406 14.6286 21.3942 13.8856 21.3942 13.1193H20.3942H19.3942C19.3942 13.444 19.304 13.5021 19.2817 13.5186L19.8786 14.321ZM20.3942 13.1193H21.3942V11.7898H20.3942H19.3942V13.1193H20.3942ZM20.3942 11.7898V10.7898H20.3089V11.7898V12.7898H20.3942V11.7898ZM20.3089 11.7898L19.4587 11.2634C19.4106 11.3412 19.3287 11.4582 19.2029 11.6208L19.9936 12.233L20.7843 12.8451C20.9312 12.6554 21.0596 12.477 21.1592 12.3161L20.3089 11.7898ZM19.9936 12.233L19.2015 11.6226C19.176 11.6557 19.1055 11.7277 18.9394 11.8173L19.4141 12.6974L19.8888 13.5776C20.2283 13.3945 20.5442 13.1568 20.7857 12.8433L19.9936 12.233ZM19.4141 12.6974L18.943 11.8154C18.8927 11.8422 18.7377 11.8977 18.3999 11.8977V12.8977V13.8977C18.9143 13.8977 19.4354 13.8197 19.8852 13.5795L19.4141 12.6974ZM18.3999 12.8977V11.8977C18.0364 11.8977 17.7411 11.8139 17.4876 11.6632L16.9766 12.5227L16.4655 13.3823C17.0529 13.7315 17.7065 13.8977 18.3999 13.8977V12.8977ZM16.9766 12.5227L17.4902 11.6647C17.2494 11.5206 17.0418 11.3042 16.8738 10.9761L15.9837 11.4318L15.0935 11.8875C15.4142 12.514 15.8685 13.0249 16.4629 13.3807L16.9766 12.5227ZM15.9837 11.4318L16.876 10.9804C16.722 10.6761 16.6214 10.26 16.6214 9.69318H15.6214H14.6214C14.6214 10.49 14.7623 11.2329 15.0914 11.8833L15.9837 11.4318ZM15.6214 9.69318H16.6214C16.6214 9.13917 16.7187 8.7075 16.8787 8.37029L15.9751 7.94176L15.0716 7.51323C14.76 8.17034 14.6214 8.90628 14.6214 9.69318H15.6214ZM15.9751 7.94176L16.8796 8.3683C17.0445 8.0187 17.2552 7.78282 17.5037 7.62163L16.9595 6.78267L16.4153 5.94371C15.8229 6.32797 15.3774 6.86482 15.0707 7.51522L15.9751 7.94176ZM16.9595 6.78267L17.5077 7.61904C17.7497 7.46045 18.041 7.36932 18.4169 7.36932V6.36932V5.36932C17.6905 5.36932 17.0103 5.55375 16.4114 5.9463L16.9595 6.78267ZM18.4169 6.36932V7.36932C18.7474 7.36932 18.8932 7.42689 18.9371 7.45184L19.4311 6.58239L19.9251 5.71293C19.469 5.45379 18.9387 5.36932 18.4169 5.36932V6.36932ZM19.4311 6.58239L18.9488 7.45839C19.1117 7.5481 19.1821 7.62133 19.2091 7.65762L20.0107 7.05966L20.8122 6.4617C20.5722 6.14003 20.2562 5.89508 19.9134 5.70638L19.4311 6.58239ZM20.0107 7.05966L19.2199 7.67183C19.3487 7.83812 19.4351 7.95858 19.4876 8.03931L20.326 7.49432L21.1644 6.94933C21.0692 6.80279 20.9454 6.63347 20.8014 6.44749L20.0107 7.05966ZM20.326 7.49432V8.49432H20.4283V7.49432V6.49432H20.326V7.49432ZM20.4283 7.49432H21.4283V6.45455H20.4283H19.4283V7.49432H20.4283ZM20.4283 6.45455V7.45455H21.3999V6.45455V5.45455H20.4283V6.45455ZM21.3999 6.45455H20.3999V13.1875H21.3999H22.3999V6.45455H21.3999ZM21.3999 13.1875H20.3999C20.3999 13.6007 20.3069 13.8347 20.207 13.9723L21.0163 14.5597L21.8256 15.1471C22.2372 14.5801 22.3999 13.8993 22.3999 13.1875H21.3999ZM21.0163 14.5597L20.2017 13.9797C20.0692 14.1658 19.891 14.3077 19.635 14.406L19.9936 15.3395L20.3522 16.273C20.9541 16.0418 21.4578 15.6638 21.8309 15.1397L21.0163 14.5597ZM19.9936 15.3395L19.6276 14.4089C19.3333 14.5246 18.9853 14.5909 18.5703 14.5909V15.5909V16.5909C19.2008 16.5909 19.8016 16.4896 20.3596 16.2701L19.9936 15.3395ZM18.5362 11.9943V12.9943C19.0949 12.9943 19.6381 12.8648 20.1117 12.5507L19.5589 11.7173L19.0062 10.884C18.923 10.9392 18.7843 10.9943 18.5362 10.9943V11.9943ZM19.5589 11.7173L20.1117 12.5507C20.575 12.2434 20.9052 11.8117 21.1165 11.3061L20.1939 10.9205L19.2713 10.5348C19.1928 10.7223 19.0997 10.8219 19.0062 10.884L19.5589 11.7173ZM20.1939 10.9205L21.1165 11.3061C21.3248 10.8079 21.4112 10.2553 21.4112 9.67614H20.4112H19.4112C19.4112 10.0629 19.3528 10.3398 19.2713 10.5348L20.1939 10.9205ZM20.4112 9.67614H21.4112C21.4112 9.1055 21.3254 8.56093 21.1286 8.06122L20.1982 8.42756L19.2677 8.79389C19.355 9.01578 19.4112 9.30359 19.4112 9.67614H20.4112ZM20.1982 8.42756L21.1286 8.06122C20.9262 7.54704 20.608 7.10316 20.1595 6.77366L19.5675 7.57955L18.9754 8.38543C19.0837 8.46502 19.186 8.58648 19.2677 8.79389L20.1982 8.42756ZM19.5675 7.57955L20.1595 6.77366C19.6796 6.42102 19.1179 6.27273 18.5362 6.27273V7.27273V8.27273C18.7727 8.27273 18.8986 8.32898 18.9754 8.38543L19.5675 7.57955ZM18.5362 7.27273V6.27273C17.9353 6.27273 17.3558 6.42803 16.8658 6.80043L17.4709 7.59659L18.076 8.39275C18.1541 8.33334 18.2848 8.27273 18.5362 8.27273V7.27273ZM17.4709 7.59659L16.8619 6.80337C16.4217 7.14135 16.106 7.58627 15.9045 8.10206L16.8359 8.46591L17.7674 8.82976C17.85 8.61828 17.9576 8.48365 18.0798 8.38981L17.4709 7.59659ZM16.8359 8.46591L15.902 8.1084C15.7135 8.60081 15.6271 9.12747 15.6271 9.67614H16.6271H17.6271C17.6271 9.33844 17.6799 9.05829 17.7698 8.82342L16.8359 8.46591ZM16.6271 9.67614H15.6271C15.6271 10.2339 15.7143 10.7678 15.9138 11.2587L16.8402 10.8821L17.7666 10.5055C17.682 10.2975 17.6271 10.0274 17.6271 9.67614H16.6271ZM16.8402 10.8821L15.9176 11.2678C16.128 11.7713 16.4538 12.1998 16.9021 12.5168L17.4794 11.7003L18.0567 10.8838C17.9425 10.803 17.8421 10.6861 17.7628 10.4964L16.8402 10.8821ZM17.4794 11.7003L16.9115 12.5234C17.396 12.8577 17.9578 12.9943 18.5362 12.9943V11.9943V10.9943C18.2738 10.9943 18.131 10.9349 18.0473 10.8772L17.4794 11.7003ZM26.6158 13H25.6158V14H26.6158V13ZM26.6158 6.45455V5.45455H25.6158V6.45455H26.6158ZM27.6214 6.45455H28.6214V5.45455H27.6214V6.45455ZM27.6214 13V14H28.6214V13H27.6214ZM26.62 5.16335L25.9278 5.88507L25.9351 5.89198L26.62 5.16335ZM26.62 4.20028L25.9351 3.47162L25.9278 3.4786L26.62 4.20028ZM27.63 4.20028L26.9377 4.922L26.9451 4.92891L27.63 4.20028ZM27.63 5.16335L26.945 4.43469L26.9377 4.44167L27.63 5.16335ZM26.6158 13H27.6158V6.45455H26.6158H25.6158V13H26.6158ZM26.6158 6.45455V7.45455H27.6214V6.45455V5.45455H26.6158V6.45455ZM27.6214 6.45455H26.6214V13H27.6214H28.6214V6.45455H27.6214ZM27.6214 13V12H26.6158V13V14H27.6214V13ZM27.1271 5.36364V4.36364C27.1449 4.36364 27.1793 4.36715 27.2207 4.38348C27.2621 4.39985 27.2906 4.42121 27.3049 4.43473L26.62 5.16335L25.9351 5.89198C26.2637 6.20089 26.6782 6.36364 27.1271 6.36364V5.36364ZM26.62 5.16335L27.3123 4.44167C27.3286 4.45737 27.3577 4.49147 27.3809 4.54499C27.4044 4.59912 27.4112 4.64866 27.4112 4.68182H26.4112H25.4112C25.4112 5.15046 25.5983 5.56903 25.9278 5.88503L26.62 5.16335ZM26.4112 4.68182H27.4112C27.4112 4.71498 27.4044 4.76452 27.3809 4.81864C27.3577 4.87216 27.3286 4.90626 27.3123 4.92196L26.62 4.20028L25.9278 3.4786C25.5983 3.79461 25.4112 4.21318 25.4112 4.68182H26.4112ZM26.62 4.20028L27.3049 4.92891C27.2906 4.94243 27.2621 4.96378 27.2207 4.98016C27.1793 4.99649 27.1449 5 27.1271 5V4V3C26.6782 3 26.2637 3.16274 25.9351 3.47166L26.62 4.20028ZM27.1271 4V5C27.1094 5 27.0736 4.99651 27.0298 4.97909C26.9858 4.96155 26.9547 4.9382 26.9377 4.92197L27.63 4.20028L28.3222 3.4786C27.9934 3.16327 27.5765 3 27.1271 3V4ZM27.63 4.20028L26.9451 4.92891C26.9295 4.91426 26.8996 4.88031 26.8753 4.82545C26.8506 4.76971 26.843 4.71777 26.843 4.68182H27.843H28.843C28.843 4.20625 28.649 3.78572 28.3149 3.47166L27.63 4.20028ZM27.843 4.68182H26.843C26.843 4.64586 26.8506 4.59393 26.8753 4.53819C26.8996 4.48332 26.9295 4.44937 26.9451 4.43472L27.63 5.16335L28.3149 5.89198C28.649 5.57792 28.843 5.15738 28.843 4.68182H27.843ZM27.63 5.16335L26.9377 4.44167C26.9547 4.42543 26.9858 4.40209 27.0298 4.38455C27.0736 4.36712 27.1094 4.36364 27.1271 4.36364V5.36364V6.36364C27.5765 6.36364 27.9934 6.20036 28.3222 5.88503L27.63 5.16335ZM30.4691 13V14H31.4691V13H30.4691ZM29.4634 13H28.4634V14H29.4634V13ZM29.4634 6.45455V5.45455H28.4634V6.45455H29.4634ZM30.435 6.45455H31.435V5.45455H30.435V6.45455ZM30.435 7.47727H29.435V8.47727H30.435V7.47727ZM30.5202 7.47727V8.47727H31.1601L31.4282 7.89633L30.5202 7.47727ZM31.2191 6.67614L31.7614 7.51634L31.7668 7.51284L31.2191 6.67614ZM33.5927 6.64205L33.1128 7.51939L33.1186 7.52252L33.5927 6.64205ZM34.3683 7.46023L33.4752 7.91021L33.4766 7.913L34.3683 7.46023ZM34.6452 13V14H35.6452V13H34.6452ZM33.6396 13H32.6396V14H33.6396V13ZM33.239 7.70739L32.5036 8.38508L32.507 8.38867L33.239 7.70739ZM31.2788 7.48153L30.7965 6.60552L30.7923 6.60785L31.2788 7.48153ZM30.6864 8.09091L29.8075 7.61402L29.8075 7.61402L30.6864 8.09091ZM30.4691 9.0625H29.4691V13H30.4691H31.4691V9.0625H30.4691ZM30.4691 13V12H29.4634V13V14H30.4691V13ZM29.4634 13H30.4634V6.45455H29.4634H28.4634V13H29.4634ZM29.4634 6.45455V7.45455H30.435V6.45455V5.45455H29.4634V6.45455ZM30.435 6.45455H29.435V7.47727H30.435H31.435V6.45455H30.435ZM30.435 7.47727V8.47727H30.5202V7.47727V6.47727H30.435V7.47727ZM30.5202 7.47727L31.4282 7.89633C31.5008 7.73905 31.6056 7.61691 31.7614 7.51632L31.2191 6.67614L30.6768 5.83595C30.2076 6.13877 29.8465 6.55072 29.6123 7.05821L30.5202 7.47727ZM31.2191 6.67614L31.7668 7.51284C31.8716 7.44425 32.0678 7.36932 32.4293 7.36932V6.36932V5.36932C31.8022 5.36932 31.1917 5.49893 30.6714 5.83944L31.2191 6.67614ZM32.4293 6.36932V7.36932C32.7334 7.36932 32.9507 7.43073 33.1128 7.51937L33.5927 6.64205L34.0726 5.76472C33.5699 5.48972 33.0116 5.36932 32.4293 5.36932V6.36932ZM33.5927 6.64205L33.1186 7.52252C33.2547 7.5958 33.3744 7.71003 33.4752 7.91021L34.3683 7.46023L35.2613 7.01025C34.9928 6.47747 34.5955 6.04625 34.0668 5.76157L33.5927 6.64205ZM34.3683 7.46023L33.4766 7.913C33.5689 8.09467 33.6452 8.38689 33.6452 8.84091H34.6452H35.6452C35.6452 8.1813 35.5369 7.55306 35.2599 7.00745L34.3683 7.46023ZM34.6452 8.84091H33.6452V13H34.6452H35.6452V8.84091H34.6452ZM34.6452 13V12H33.6396V13V14H34.6452V13ZM33.6396 13H34.6396V8.90909H33.6396H32.6396V13H33.6396ZM33.6396 8.90909H34.6396C34.6396 8.22311 34.4585 7.54992 33.971 7.0261L33.239 7.70739L32.507 8.38867C32.5536 8.43872 32.6396 8.56666 32.6396 8.90909H33.6396ZM33.239 7.70739L33.9743 7.02971C33.4834 6.49695 32.8293 6.27273 32.1396 6.27273V7.27273V8.27273C32.3816 8.27273 32.4605 8.33828 32.5036 8.38507L33.239 7.70739ZM32.1396 7.27273V6.27273C31.6692 6.27273 31.2131 6.37615 30.7965 6.60553L31.2788 7.48153L31.7611 8.35754C31.8501 8.3085 31.9679 8.27273 32.1396 8.27273V7.27273ZM31.2788 7.48153L30.7923 6.60785C30.366 6.84518 30.037 7.19093 29.8075 7.61402L30.6864 8.09091L31.5654 8.56779C31.6256 8.4568 31.6915 8.3963 31.7653 8.35522L31.2788 7.48153ZM30.6864 8.09091L29.8075 7.61402C29.5655 8.05998 29.4691 8.55665 29.4691 9.0625H30.4691H31.4691C31.4691 8.80699 31.5176 8.65593 31.5654 8.56779L30.6864 8.09091Z" fill="#B33535" mask="url(#path-2-outside-1_0_1)"/>
</svg>
