<svg width="26" height="18" viewBox="0 0 26 18" fill="none" xmlns="http://www.w3.org/2000/svg">
<mask id="path-1-outside-1_0_1" maskUnits="userSpaceOnUse" x="0" y="0" width="11" height="12" fill="black">
<rect fill="white" width="11" height="12"/>
<path d="M8.02273 4C7.92898 3.71307 7.8054 3.45597 7.65199 3.22869C7.50142 2.99858 7.32102 2.80256 7.1108 2.64062C6.90341 2.47869 6.66761 2.35511 6.40341 2.26989C6.1392 2.18466 5.84943 2.14205 5.53409 2.14205C5.01705 2.14205 4.54688 2.27557 4.12358 2.54261C3.70028 2.80966 3.36364 3.20312 3.11364 3.72301C2.86364 4.2429 2.73864 4.88068 2.73864 5.63636C2.73864 6.39205 2.86506 7.02983 3.1179 7.54972C3.37074 8.0696 3.71307 8.46307 4.14489 8.73011C4.5767 8.99716 5.0625 9.13068 5.60227 9.13068C6.10227 9.13068 6.54261 9.02415 6.9233 8.81108C7.30682 8.59517 7.60511 8.29119 7.81818 7.89915C8.03409 7.50426 8.14205 7.03977 8.14205 6.50568L8.46591 6.57386H5.84091V5.63636H9.16477V6.57386C9.16477 7.29261 9.01136 7.91761 8.70455 8.44886C8.40057 8.98011 7.98011 9.39205 7.44318 9.68466C6.90909 9.97443 6.29545 10.1193 5.60227 10.1193C4.82955 10.1193 4.15057 9.9375 3.56534 9.57386C2.98295 9.21023 2.52841 8.69318 2.2017 8.02273C1.87784 7.35227 1.71591 6.55682 1.71591 5.63636C1.71591 4.94602 1.80824 4.32528 1.9929 3.77415C2.1804 3.22017 2.4446 2.74858 2.78551 2.35938C3.12642 1.97017 3.52983 1.67188 3.99574 1.46449C4.46165 1.2571 4.97443 1.15341 5.53409 1.15341C5.99432 1.15341 6.4233 1.22301 6.82102 1.36222C7.22159 1.49858 7.57812 1.69318 7.89062 1.94602C8.20597 2.19602 8.46875 2.49574 8.67898 2.84517C8.8892 3.19176 9.03409 3.5767 9.11364 4H8.02273Z"/>
</mask>
<path d="M8.02273 4C7.92898 3.71307 7.8054 3.45597 7.65199 3.22869C7.50142 2.99858 7.32102 2.80256 7.1108 2.64062C6.90341 2.47869 6.66761 2.35511 6.40341 2.26989C6.1392 2.18466 5.84943 2.14205 5.53409 2.14205C5.01705 2.14205 4.54688 2.27557 4.12358 2.54261C3.70028 2.80966 3.36364 3.20312 3.11364 3.72301C2.86364 4.2429 2.73864 4.88068 2.73864 5.63636C2.73864 6.39205 2.86506 7.02983 3.1179 7.54972C3.37074 8.0696 3.71307 8.46307 4.14489 8.73011C4.5767 8.99716 5.0625 9.13068 5.60227 9.13068C6.10227 9.13068 6.54261 9.02415 6.9233 8.81108C7.30682 8.59517 7.60511 8.29119 7.81818 7.89915C8.03409 7.50426 8.14205 7.03977 8.14205 6.50568L8.46591 6.57386H5.84091V5.63636H9.16477V6.57386C9.16477 7.29261 9.01136 7.91761 8.70455 8.44886C8.40057 8.98011 7.98011 9.39205 7.44318 9.68466C6.90909 9.97443 6.29545 10.1193 5.60227 10.1193C4.82955 10.1193 4.15057 9.9375 3.56534 9.57386C2.98295 9.21023 2.52841 8.69318 2.2017 8.02273C1.87784 7.35227 1.71591 6.55682 1.71591 5.63636C1.71591 4.94602 1.80824 4.32528 1.9929 3.77415C2.1804 3.22017 2.4446 2.74858 2.78551 2.35938C3.12642 1.97017 3.52983 1.67188 3.99574 1.46449C4.46165 1.2571 4.97443 1.15341 5.53409 1.15341C5.99432 1.15341 6.4233 1.22301 6.82102 1.36222C7.22159 1.49858 7.57812 1.69318 7.89062 1.94602C8.20597 2.19602 8.46875 2.49574 8.67898 2.84517C8.8892 3.19176 9.03409 3.5767 9.11364 4H8.02273Z" fill="black"/>
<path d="M8.02273 4L7.07218 4.31058L7.29744 5H8.02273V4ZM7.65199 3.22869L6.8152 3.77622L6.81913 3.78222L6.82314 3.78817L7.65199 3.22869ZM7.1108 2.64062L6.49535 3.42883L6.50057 3.43285L7.1108 2.64062ZM6.40341 2.26989L6.71041 1.31818L6.71041 1.31818L6.40341 2.26989ZM3.11364 3.72301L4.01485 4.15638L4.01485 4.15638L3.11364 3.72301ZM3.1179 7.54972L2.21861 7.98707L2.21861 7.98707L3.1179 7.54972ZM6.9233 8.81108L7.4117 9.6837L7.41386 9.68248L6.9233 8.81108ZM7.81818 7.89915L6.94077 7.41941L6.93956 7.42163L7.81818 7.89915ZM8.14205 6.50568L8.34806 5.52713L7.14205 5.27324V6.50568H8.14205ZM8.46591 6.57386V7.57386L8.67192 5.59531L8.46591 6.57386ZM5.84091 6.57386H4.84091V7.57386H5.84091V6.57386ZM5.84091 5.63636V4.63636H4.84091V5.63636H5.84091ZM9.16477 5.63636H10.1648V4.63636H9.16477V5.63636ZM8.70455 8.44886L7.83858 7.94874L7.83659 7.95222L8.70455 8.44886ZM7.44318 9.68466L7.92007 10.5636L7.92171 10.5627L7.44318 9.68466ZM3.56534 9.57386L3.03571 10.4221L3.03757 10.4232L3.56534 9.57386ZM2.2017 8.02273L1.30125 8.45769L1.30275 8.46078L2.2017 8.02273ZM1.9929 3.77415L1.04568 3.45355L1.0447 3.45645L1.9929 3.77415ZM2.78551 2.35938L3.53775 3.01827L3.53775 3.01827L2.78551 2.35938ZM6.82102 1.36222L6.49066 2.30611L6.49876 2.30887L6.82102 1.36222ZM7.89062 1.94602L7.2616 2.72347L7.26938 2.72964L7.89062 1.94602ZM8.67898 2.84517L7.82209 3.36069L7.82397 3.36378L8.67898 2.84517ZM9.11364 4V5H10.3191L10.0964 3.81531L9.11364 4ZM8.02273 4L8.97328 3.68942C8.85358 3.32308 8.6911 2.98072 8.48084 2.66922L7.65199 3.22869L6.82314 3.78817C6.91969 3.93121 7.00438 4.10305 7.07218 4.31058L8.02273 4ZM7.65199 3.22869L8.48878 2.68117C8.27917 2.36082 8.02314 2.08111 7.72102 1.8484L7.1108 2.64062L6.50057 3.43285C6.61891 3.52401 6.72367 3.63634 6.8152 3.77622L7.65199 3.22869ZM7.1108 2.64062L7.72623 1.85244C7.42141 1.61443 7.08001 1.4374 6.71041 1.31818L6.40341 2.26989L6.09641 3.22159C6.25521 3.27282 6.38541 3.34296 6.49536 3.42881L7.1108 2.64062ZM6.40341 2.26989L6.71041 1.31818C6.33457 1.19694 5.93972 1.14205 5.53409 1.14205V2.14205V3.14205C5.75915 3.14205 5.94384 3.17238 6.09641 3.22159L6.40341 2.26989ZM5.53409 2.14205V1.14205C4.83477 1.14205 4.17851 1.32559 3.59001 1.69685L4.12358 2.54261L4.65715 3.38837C4.91524 3.22555 5.19932 3.14205 5.53409 3.14205V2.14205ZM4.12358 2.54261L3.59001 1.69685C2.98482 2.07866 2.53113 2.62687 2.21242 3.28964L3.11364 3.72301L4.01485 4.15638C4.19614 3.77938 4.41575 3.54066 4.65715 3.38837L4.12358 2.54261ZM3.11364 3.72301L2.21242 3.28964C1.8805 3.97989 1.73864 4.77526 1.73864 5.63636H2.73864H3.73864C3.73864 4.98611 3.84678 4.5059 4.01485 4.15638L3.11364 3.72301ZM2.73864 5.63636H1.73864C1.73864 6.49886 1.88238 7.29572 2.21861 7.98707L3.1179 7.54972L4.01719 7.11236C3.84774 6.76394 3.73864 6.28523 3.73864 5.63636H2.73864ZM3.1179 7.54972L2.21861 7.98707C2.54249 8.65303 3.00459 9.2007 3.61892 9.58062L4.14489 8.73011L4.67086 7.87961C4.42155 7.72543 4.19899 7.48618 4.01719 7.11236L3.1179 7.54972ZM4.14489 8.73011L3.61892 9.58062C4.21886 9.95163 4.88893 10.1307 5.60227 10.1307V9.13068V8.13068C5.23607 8.13068 4.93455 8.04268 4.67086 7.87961L4.14489 8.73011ZM5.60227 9.13068V10.1307C6.24799 10.1307 6.86117 9.99183 7.4117 9.6837L6.9233 8.81108L6.43489 7.93846C6.22406 8.05646 5.95656 8.13068 5.60227 8.13068V9.13068ZM6.9233 8.81108L7.41386 9.68248C7.96357 9.37302 8.39529 8.93145 8.69681 8.37666L7.81818 7.89915L6.93956 7.42163C6.81494 7.65094 6.65007 7.81732 6.43273 7.93968L6.9233 8.81108ZM7.81818 7.89915L8.69559 8.37888C9.00572 7.81168 9.14205 7.17613 9.14205 6.50568H8.14205H7.14205C7.14205 6.90341 7.06246 7.19685 6.94077 7.41941L7.81818 7.89915ZM8.14205 6.50568L7.93604 7.48423L8.2599 7.55241L8.46591 6.57386L8.67192 5.59531L8.34806 5.52713L8.14205 6.50568ZM8.46591 6.57386V5.57386H5.84091V6.57386V7.57386H8.46591V6.57386ZM5.84091 6.57386H6.84091V5.63636H5.84091H4.84091V6.57386H5.84091ZM5.84091 5.63636V6.63636H9.16477V5.63636V4.63636H5.84091V5.63636ZM9.16477 5.63636H8.16477V6.57386H9.16477H10.1648V5.63636H9.16477ZM9.16477 6.57386H8.16477C8.16477 7.14741 8.04356 7.59385 7.83859 7.94874L8.70455 8.44886L9.5705 8.94899C9.97917 8.24138 10.1648 7.43782 10.1648 6.57386H9.16477ZM8.70455 8.44886L7.83659 7.95222C7.6245 8.32288 7.3388 8.60269 6.96466 8.80659L7.44318 9.68466L7.92171 10.5627C8.62143 10.1814 9.17664 9.63735 9.5725 8.9455L8.70455 8.44886ZM7.44318 9.68466L6.9663 8.80569C6.59812 9.00545 6.15261 9.11932 5.60227 9.11932V10.1193V11.1193C6.4383 11.1193 7.22006 10.9434 7.92007 10.5636L7.44318 9.68466ZM5.60227 10.1193V9.11932C4.99276 9.11932 4.50121 8.97805 4.09311 8.72448L3.56534 9.57386L3.03757 10.4232C3.79993 10.8969 4.66633 11.1193 5.60227 11.1193V10.1193ZM3.56534 9.57386L4.09497 8.72563C3.68541 8.46991 3.35253 8.10158 3.10066 7.58468L2.2017 8.02273L1.30275 8.46078C1.70428 9.28479 2.2805 9.95054 3.03571 10.4221L3.56534 9.57386ZM2.2017 8.02273L3.10215 7.58776C2.85743 7.08114 2.71591 6.44099 2.71591 5.63636H1.71591H0.715909C0.715909 6.67265 0.898252 7.6234 1.30126 8.45769L2.2017 8.02273ZM1.71591 5.63636H2.71591C2.71591 5.03431 2.79649 4.52342 2.94109 4.09184L1.9929 3.77415L1.0447 3.45645C0.819988 4.12715 0.715909 4.85773 0.715909 5.63636H1.71591ZM1.9929 3.77415L2.94011 4.09474C3.09095 3.64908 3.29401 3.29654 3.53775 3.01827L2.78551 2.35938L2.03328 1.70048C1.5952 2.20062 1.26984 2.79126 1.04568 3.45355L1.9929 3.77415ZM2.78551 2.35938L3.53775 3.01827C3.78469 2.73634 4.07073 2.5257 4.40239 2.37807L3.99574 1.46449L3.58908 0.550907C2.98893 0.818048 2.46815 1.204 2.03327 1.70048L2.78551 2.35938ZM3.99574 1.46449L4.40239 2.37807C4.7283 2.233 5.10078 2.15341 5.53409 2.15341V1.15341V0.153409C4.84809 0.153409 4.195 0.281201 3.58908 0.550907L3.99574 1.46449ZM5.53409 1.15341V2.15341C5.89218 2.15341 6.20847 2.2073 6.49067 2.30607L6.82102 1.36222L7.15137 0.418357C6.63812 0.23872 6.09646 0.153409 5.53409 0.153409V1.15341ZM6.82102 1.36222L6.49876 2.30887C6.79385 2.40932 7.04536 2.54845 7.26163 2.72343L7.89062 1.94602L8.51962 1.16861C8.11089 0.837911 7.64933 0.587837 7.14329 0.415566L6.82102 1.36222ZM7.89062 1.94602L7.26938 2.72964C7.48946 2.90412 7.67286 3.11263 7.8221 3.36069L8.67898 2.84517L9.53586 2.32965C9.26464 1.87885 8.92247 1.48793 8.51187 1.16241L7.89062 1.94602ZM8.67898 2.84517L7.82397 3.36378C7.96807 3.60136 8.07208 3.87203 8.13084 4.18469L9.11364 4L10.0964 3.81531C9.9961 3.28138 9.81034 2.78216 9.53399 2.32656L8.67898 2.84517ZM9.11364 4V3H8.02273V4V5H9.11364V4Z" fill="#E64545" mask="url(#path-1-outside-1_0_1)"/>
<mask id="path-3-outside-2_0_1" maskUnits="userSpaceOnUse" x="6.03705" y="0" width="12" height="12" fill="black">
<rect fill="white" x="6.03705" width="12" height="12"/>
<path d="M11.2643 7.27273H12.4234L13.395 8.55114L13.6507 8.89205L15.0995 10.8182H13.9405L12.9859 9.53977L12.7473 9.21591L11.2643 7.27273ZM15.4575 5.63636C15.4575 6.55682 15.2913 7.35227 14.9589 8.02273C14.6265 8.69318 14.1706 9.21023 13.591 9.57386C13.0115 9.9375 12.3495 10.1193 11.6052 10.1193C10.8609 10.1193 10.199 9.9375 9.61943 9.57386C9.03989 9.21023 8.58392 8.69318 8.25154 8.02273C7.91915 7.35227 7.75296 6.55682 7.75296 5.63636C7.75296 4.71591 7.91915 3.92045 8.25154 3.25C8.58392 2.57955 9.03989 2.0625 9.61943 1.69886C10.199 1.33523 10.8609 1.15341 11.6052 1.15341C12.3495 1.15341 13.0115 1.33523 13.591 1.69886C14.1706 2.0625 14.6265 2.57955 14.9589 3.25C15.2913 3.92045 15.4575 4.71591 15.4575 5.63636ZM14.4348 5.63636C14.4348 4.88068 14.3084 4.2429 14.0555 3.72301C13.8055 3.20312 13.466 2.80966 13.037 2.54261C12.6109 2.27557 12.1336 2.14205 11.6052 2.14205C11.0768 2.14205 10.5981 2.27557 10.1692 2.54261C9.74301 2.80966 9.40353 3.20312 9.15068 3.72301C8.90068 4.2429 8.77568 4.88068 8.77568 5.63636C8.77568 6.39205 8.90068 7.02983 9.15068 7.54972C9.40353 8.0696 9.74301 8.46307 10.1692 8.73011C10.5981 8.99716 11.0768 9.13068 11.6052 9.13068C12.1336 9.13068 12.6109 8.99716 13.037 8.73011C13.466 8.46307 13.8055 8.0696 14.0555 7.54972C14.3084 7.02983 14.4348 6.39205 14.4348 5.63636Z"/>
</mask>
<path d="M11.2643 7.27273H12.4234L13.395 8.55114L13.6507 8.89205L15.0995 10.8182H13.9405L12.9859 9.53977L12.7473 9.21591L11.2643 7.27273ZM15.4575 5.63636C15.4575 6.55682 15.2913 7.35227 14.9589 8.02273C14.6265 8.69318 14.1706 9.21023 13.591 9.57386C13.0115 9.9375 12.3495 10.1193 11.6052 10.1193C10.8609 10.1193 10.199 9.9375 9.61943 9.57386C9.03989 9.21023 8.58392 8.69318 8.25154 8.02273C7.91915 7.35227 7.75296 6.55682 7.75296 5.63636C7.75296 4.71591 7.91915 3.92045 8.25154 3.25C8.58392 2.57955 9.03989 2.0625 9.61943 1.69886C10.199 1.33523 10.8609 1.15341 11.6052 1.15341C12.3495 1.15341 13.0115 1.33523 13.591 1.69886C14.1706 2.0625 14.6265 2.57955 14.9589 3.25C15.2913 3.92045 15.4575 4.71591 15.4575 5.63636ZM14.4348 5.63636C14.4348 4.88068 14.3084 4.2429 14.0555 3.72301C13.8055 3.20312 13.466 2.80966 13.037 2.54261C12.6109 2.27557 12.1336 2.14205 11.6052 2.14205C11.0768 2.14205 10.5981 2.27557 10.1692 2.54261C9.74301 2.80966 9.40353 3.20312 9.15068 3.72301C8.90068 4.2429 8.77568 4.88068 8.77568 5.63636C8.77568 6.39205 8.90068 7.02983 9.15068 7.54972C9.40353 8.0696 9.74301 8.46307 10.1692 8.73011C10.5981 8.99716 11.0768 9.13068 11.6052 9.13068C12.1336 9.13068 12.6109 8.99716 13.037 8.73011C13.466 8.46307 13.8055 8.0696 14.0555 7.54972C14.3084 7.02983 14.4348 6.39205 14.4348 5.63636Z" fill="black"/>
<path d="M11.2643 7.27273V6.27273H9.24322L10.4694 7.8794L11.2643 7.27273ZM12.4234 7.27273L13.2196 6.66764L12.9194 6.27273H12.4234V7.27273ZM13.395 8.55114L14.195 7.95112L14.1912 7.94605L13.395 8.55114ZM13.6507 8.89205L12.8507 9.49205L12.8515 9.49318L13.6507 8.89205ZM15.0995 10.8182V11.8182H17.1031L15.8987 10.2171L15.0995 10.8182ZM13.9405 10.8182L13.1392 11.4165L13.4391 11.8182H13.9405V10.8182ZM12.9859 9.53977L12.1808 10.133L12.1846 10.1381L12.9859 9.53977ZM12.7473 9.21591L13.5523 8.62271L13.5473 8.61593L13.5422 8.60924L12.7473 9.21591ZM14.9589 8.02273L14.063 7.57855L14.063 7.57855L14.9589 8.02273ZM13.591 9.57386L14.1225 10.4209L14.1225 10.4209L13.591 9.57386ZM9.61943 9.57386L9.08794 10.4209L9.08794 10.4209L9.61943 9.57386ZM8.25154 8.02273L9.14748 7.57855L9.14748 7.57855L8.25154 8.02273ZM13.591 1.69886L14.1225 0.8518L14.1225 0.8518L13.591 1.69886ZM14.9589 3.25L14.063 3.69417L14.063 3.69417L14.9589 3.25ZM14.0555 3.72301L13.1543 4.15639L13.1562 4.16037L14.0555 3.72301ZM13.037 2.54261L12.506 3.38998L12.5086 3.39156L13.037 2.54261ZM10.1692 2.54261L9.64067 1.69367L9.63814 1.69525L10.1692 2.54261ZM9.15068 3.72301L8.25139 3.28565L8.24947 3.28964L9.15068 3.72301ZM9.15068 7.54972L8.24946 7.98309L8.2514 7.98707L9.15068 7.54972ZM10.1692 8.73011L9.63813 9.57748L9.64067 9.57906L10.1692 8.73011ZM13.037 8.73011L12.5086 7.88117L12.506 7.88275L13.037 8.73011ZM14.0555 7.54972L13.1562 7.11235L13.1543 7.11634L14.0555 7.54972ZM11.2643 7.27273V8.27273H12.4234V7.27273V6.27273H11.2643V7.27273ZM12.4234 7.27273L11.6272 7.87781L12.5988 9.15622L13.395 8.55114L14.1912 7.94605L13.2196 6.66764L12.4234 7.27273ZM13.395 8.55114L12.595 9.15114L12.8507 9.49205L13.6507 8.89205L14.4507 8.29205L14.195 7.95114L13.395 8.55114ZM13.6507 8.89205L12.8515 9.49318L14.3004 11.4193L15.0995 10.8182L15.8987 10.2171L14.4498 8.29091L13.6507 8.89205ZM15.0995 10.8182V9.81818H13.9405V10.8182V11.8182H15.0995V10.8182ZM13.9405 10.8182L14.7417 10.2199L13.7872 8.94148L12.9859 9.53977L12.1846 10.1381L13.1392 11.4165L13.9405 10.8182ZM12.9859 9.53977L13.791 8.94657L13.5523 8.62271L12.7473 9.21591L11.9422 9.80911L12.1809 10.133L12.9859 9.53977ZM12.7473 9.21591L13.5422 8.60924L12.0593 6.66605L11.2643 7.27273L10.4694 7.8794L11.9523 9.82258L12.7473 9.21591ZM15.4575 5.63636H14.4575C14.4575 6.43751 14.313 7.07427 14.063 7.57855L14.9589 8.02273L15.8549 8.4669C16.2696 7.63027 16.4575 6.67613 16.4575 5.63636H15.4575ZM14.9589 8.02273L14.063 7.57855C13.8046 8.09969 13.4682 8.47035 13.0595 8.7268L13.591 9.57386L14.1225 10.4209C14.8729 9.9501 15.4485 9.28667 15.8549 8.4669L14.9589 8.02273ZM13.591 9.57386L13.0595 8.7268C12.6532 8.98176 12.1787 9.11932 11.6052 9.11932V10.1193V11.1193C12.5204 11.1193 13.3698 10.8932 14.1225 10.4209L13.591 9.57386ZM11.6052 10.1193V9.11932C11.0318 9.11932 10.5573 8.98176 10.1509 8.7268L9.61943 9.57386L9.08794 10.4209C9.84069 10.8932 10.6901 11.1193 11.6052 11.1193V10.1193ZM9.61943 9.57386L10.1509 8.7268C9.74221 8.47035 9.40584 8.09969 9.14748 7.57855L8.25154 8.02273L7.3556 8.4669C7.76201 9.28667 8.33757 9.9501 9.08794 10.4209L9.61943 9.57386ZM8.25154 8.02273L9.14748 7.57855C8.89747 7.07427 8.75296 6.43751 8.75296 5.63636H7.75296H6.75296C6.75296 6.67613 6.94083 7.63027 7.3556 8.4669L8.25154 8.02273ZM7.75296 5.63636H8.75296C8.75296 4.83522 8.89747 4.19845 9.14748 3.69417L8.25154 3.25L7.3556 2.80583C6.94083 3.64245 6.75296 4.5966 6.75296 5.63636H7.75296ZM8.25154 3.25L9.14748 3.69417C9.40584 3.17304 9.74221 2.80237 10.1509 2.54593L9.61943 1.69886L9.08794 0.8518C8.33757 1.32263 7.76201 1.98605 7.3556 2.80583L8.25154 3.25ZM9.61943 1.69886L10.1509 2.54593C10.5573 2.29096 11.0318 2.15341 11.6052 2.15341V1.15341V0.153409C10.6901 0.153409 9.84069 0.379489 9.08794 0.8518L9.61943 1.69886ZM11.6052 1.15341V2.15341C12.1787 2.15341 12.6532 2.29096 13.0595 2.54593L13.591 1.69886L14.1225 0.8518C13.3698 0.379489 12.5204 0.153409 11.6052 0.153409V1.15341ZM13.591 1.69886L13.0595 2.54593C13.4682 2.80237 13.8046 3.17304 14.063 3.69417L14.9589 3.25L15.8549 2.80583C15.4485 1.98605 14.8729 1.32263 14.1225 0.8518L13.591 1.69886ZM14.9589 3.25L14.063 3.69417C14.313 4.19845 14.4575 4.83522 14.4575 5.63636H15.4575H16.4575C16.4575 4.5966 16.2696 3.64245 15.8549 2.80583L14.9589 3.25ZM14.4348 5.63636H15.4348C15.4348 4.77386 15.291 3.97701 14.9548 3.28565L14.0555 3.72301L13.1562 4.16037C13.3257 4.50879 13.4348 4.9875 13.4348 5.63636H14.4348ZM14.0555 3.72301L14.9567 3.28964C14.6364 2.6235 14.1776 2.07468 13.5655 1.69367L13.037 2.54261L12.5086 3.39156C12.7545 3.54463 12.9746 3.78275 13.1543 4.15638L14.0555 3.72301ZM13.037 2.54261L13.5681 1.69525C12.9745 1.32329 12.3115 1.14205 11.6052 1.14205V2.14205V3.14205C11.9558 3.14205 12.2473 3.22784 12.506 3.38998L13.037 2.54261ZM11.6052 2.14205V1.14205C10.899 1.14205 10.2357 1.32327 9.64067 1.69367L10.1692 2.54261L10.6976 3.39156C10.9606 3.22787 11.2547 3.14205 11.6052 3.14205V2.14205ZM10.1692 2.54261L9.63814 1.69525C9.03064 2.07595 8.57365 2.62304 8.2514 3.28565L9.15068 3.72301L10.05 4.16037C10.2334 3.78321 10.4554 3.54337 10.7002 3.38998L10.1692 2.54261ZM9.15068 3.72301L8.24947 3.28964C7.91754 3.97989 7.77568 4.77526 7.77568 5.63636H8.77568H9.77568C9.77568 4.98611 9.88383 4.5059 10.0519 4.15638L9.15068 3.72301ZM8.77568 5.63636H7.77568C7.77568 6.49747 7.91754 7.29283 8.24947 7.98309L9.15068 7.54972L10.0519 7.11634C9.88383 6.76683 9.77568 6.28662 9.77568 5.63636H8.77568ZM9.15068 7.54972L8.2514 7.98707C8.57365 8.64969 9.03064 9.19678 9.63814 9.57748L10.1692 8.73011L10.7002 7.88275C10.4554 7.72936 10.2334 7.48952 10.05 7.11236L9.15068 7.54972ZM10.1692 8.73011L9.64067 9.57906C10.2357 9.94946 10.899 10.1307 11.6052 10.1307V9.13068V8.13068C11.2547 8.13068 10.9606 8.04486 10.6976 7.88117L10.1692 8.73011ZM11.6052 9.13068V10.1307C12.3115 10.1307 12.9745 9.94943 13.5681 9.57748L13.037 8.73011L12.506 7.88275C12.2473 8.04488 11.9558 8.13068 11.6052 8.13068V9.13068ZM13.037 8.73011L13.5655 9.57906C14.1776 9.19804 14.6364 8.64923 14.9567 7.98309L14.0555 7.54972L13.1543 7.11634C12.9746 7.48998 12.7545 7.72809 12.5086 7.88117L13.037 8.73011ZM14.0555 7.54972L14.9548 7.98707C15.291 7.29572 15.4348 6.49886 15.4348 5.63636H14.4348H13.4348C13.4348 6.28523 13.3257 6.76394 13.1562 7.11236L14.0555 7.54972Z" fill="#E64545" mask="url(#path-3-outside-2_0_1)"/>
<mask id="path-5-outside-3_0_1" maskUnits="userSpaceOnUse" x="13" y="6" width="9" height="12" fill="black">
<rect fill="white" x="13" y="6" width="9" height="12"/>
<path d="M17.75 16.1193C17.108 16.1193 16.5611 15.9446 16.1094 15.5952C15.6577 15.2429 15.3125 14.733 15.0739 14.0653C14.8352 13.3949 14.7159 12.5852 14.7159 11.6364C14.7159 10.6932 14.8352 9.88778 15.0739 9.22017C15.3153 8.54972 15.6619 8.03835 16.1136 7.68608C16.5682 7.33097 17.1136 7.15341 17.75 7.15341C18.3864 7.15341 18.9304 7.33097 19.3821 7.68608C19.8366 8.03835 20.1832 8.54972 20.4219 9.22017C20.6634 9.88778 20.7841 10.6932 20.7841 11.6364C20.7841 12.5852 20.6648 13.3949 20.4261 14.0653C20.1875 14.733 19.8423 15.2429 19.3906 15.5952C18.9389 15.9446 18.392 16.1193 17.75 16.1193ZM17.75 15.1818C18.3864 15.1818 18.8807 14.875 19.233 14.2614C19.5852 13.6477 19.7614 12.7727 19.7614 11.6364C19.7614 10.8807 19.6804 10.2372 19.5185 9.70597C19.3594 9.17472 19.1293 8.76989 18.8281 8.49148C18.5298 8.21307 18.1705 8.07386 17.75 8.07386C17.1193 8.07386 16.6264 8.38494 16.2713 9.0071C15.9162 9.62642 15.7386 10.5028 15.7386 11.6364C15.7386 12.392 15.8182 13.0341 15.9773 13.5625C16.1364 14.0909 16.3651 14.4929 16.6634 14.7685C16.9645 15.044 17.3267 15.1818 17.75 15.1818Z"/>
</mask>
<path d="M17.75 16.1193C17.108 16.1193 16.5611 15.9446 16.1094 15.5952C15.6577 15.2429 15.3125 14.733 15.0739 14.0653C14.8352 13.3949 14.7159 12.5852 14.7159 11.6364C14.7159 10.6932 14.8352 9.88778 15.0739 9.22017C15.3153 8.54972 15.6619 8.03835 16.1136 7.68608C16.5682 7.33097 17.1136 7.15341 17.75 7.15341C18.3864 7.15341 18.9304 7.33097 19.3821 7.68608C19.8366 8.03835 20.1832 8.54972 20.4219 9.22017C20.6634 9.88778 20.7841 10.6932 20.7841 11.6364C20.7841 12.5852 20.6648 13.3949 20.4261 14.0653C20.1875 14.733 19.8423 15.2429 19.3906 15.5952C18.9389 15.9446 18.392 16.1193 17.75 16.1193ZM17.75 15.1818C18.3864 15.1818 18.8807 14.875 19.233 14.2614C19.5852 13.6477 19.7614 12.7727 19.7614 11.6364C19.7614 10.8807 19.6804 10.2372 19.5185 9.70597C19.3594 9.17472 19.1293 8.76989 18.8281 8.49148C18.5298 8.21307 18.1705 8.07386 17.75 8.07386C17.1193 8.07386 16.6264 8.38494 16.2713 9.0071C15.9162 9.62642 15.7386 10.5028 15.7386 11.6364C15.7386 12.392 15.8182 13.0341 15.9773 13.5625C16.1364 14.0909 16.3651 14.4929 16.6634 14.7685C16.9645 15.044 17.3267 15.1818 17.75 15.1818Z" fill="black"/>
<path d="M16.1094 15.5952L15.4944 16.3837L15.4975 16.3861L16.1094 15.5952ZM15.0739 14.0653L14.1318 14.4007L14.1322 14.4019L15.0739 14.0653ZM15.0739 9.22017L14.133 8.88131L14.1322 8.88358L15.0739 9.22017ZM16.1136 7.68608L16.7286 8.47463L16.7293 8.4741L16.1136 7.68608ZM19.3821 7.68608L18.764 8.47224L18.7695 8.47649L19.3821 7.68608ZM20.4219 9.22017L19.4798 9.5555L19.4815 9.56031L20.4219 9.22017ZM20.4261 14.0653L21.3678 14.4019L21.3682 14.4007L20.4261 14.0653ZM19.3906 15.5952L20.0025 16.3861L20.0056 16.3837L19.3906 15.5952ZM19.233 14.2614L18.3657 13.7635L18.3657 13.7635L19.233 14.2614ZM19.5185 9.70597L18.5605 9.99285L18.5619 9.99753L19.5185 9.70597ZM18.8281 8.49148L18.1458 9.22254L18.1493 9.22575L18.8281 8.49148ZM16.2713 9.0071L17.1388 9.50453L17.1398 9.50281L16.2713 9.0071ZM15.9773 13.5625L15.0197 13.8508L15.0197 13.8508L15.9773 13.5625ZM16.6634 14.7685L15.9848 15.503L15.9883 15.5062L16.6634 14.7685ZM17.75 16.1193V15.1193C17.3005 15.1193 16.9762 15.0014 16.7212 14.8042L16.1094 15.5952L15.4975 16.3861C16.146 16.8878 16.9155 17.1193 17.75 17.1193V16.1193ZM16.1094 15.5952L16.7243 14.8066C16.4541 14.5959 16.2055 14.2602 16.0155 13.7288L15.0739 14.0653L14.1322 14.4019C14.4195 15.2057 14.8612 15.8899 15.4944 16.3837L16.1094 15.5952ZM15.0739 14.0653L16.016 13.73C15.826 13.1964 15.7159 12.5067 15.7159 11.6364H14.7159H13.7159C13.7159 12.6637 13.8444 13.5934 14.1318 14.4007L15.0739 14.0653ZM14.7159 11.6364H15.7159C15.7159 10.7723 15.8259 10.0873 16.0155 9.55676L15.0739 9.22017L14.1322 8.88358C13.8446 9.6883 13.7159 10.6141 13.7159 11.6364H14.7159ZM15.0739 9.22017L16.0147 9.55903C16.2078 9.02298 16.4583 8.68542 16.7286 8.47463L16.1136 7.68608L15.4987 6.89753C14.8655 7.39128 14.4229 8.07645 14.133 8.88131L15.0739 9.22017ZM16.1136 7.68608L16.7293 8.4741C16.9897 8.27066 17.3123 8.15341 17.75 8.15341V7.15341V6.15341C16.9149 6.15341 16.1467 6.39127 15.498 6.89805L16.1136 7.68608ZM17.75 7.15341V8.15341C18.1877 8.15341 18.5077 8.27065 18.7641 8.47223L19.3821 7.68608L20.0001 6.89993C19.3531 6.39128 18.585 6.15341 17.75 6.15341V7.15341ZM19.3821 7.68608L18.7695 8.47649C19.0407 8.68665 19.29 9.02231 19.4798 9.55549L20.4219 9.22017L21.364 8.88485C21.0765 8.07713 20.6326 7.39005 19.9947 6.89566L19.3821 7.68608ZM20.4219 9.22017L19.4815 9.56031C19.6729 10.0896 19.7841 10.7733 19.7841 11.6364H20.7841H21.7841C21.7841 10.613 21.6538 9.68596 21.3623 8.88003L20.4219 9.22017ZM20.7841 11.6364H19.7841C19.7841 12.5067 19.674 13.1964 19.484 13.73L20.4261 14.0653L21.3682 14.4007C21.6556 13.5934 21.7841 12.6637 21.7841 11.6364H20.7841ZM20.4261 14.0653L19.4845 13.7288C19.2945 14.2602 19.0459 14.5959 18.7757 14.8066L19.3906 15.5952L20.0056 16.3837C20.6388 15.8899 21.0805 15.2057 21.3678 14.4019L20.4261 14.0653ZM19.3906 15.5952L18.7788 14.8042C18.5238 15.0014 18.1995 15.1193 17.75 15.1193V16.1193V17.1193C18.5845 17.1193 19.354 16.8878 20.0025 16.3861L19.3906 15.5952ZM17.75 15.1818V16.1818C18.7905 16.1818 19.5938 15.6414 20.1002 14.7592L19.233 14.2614L18.3657 13.7635C18.1676 14.1086 17.9822 14.1818 17.75 14.1818V15.1818ZM19.233 14.2614L20.1002 14.7592C20.577 13.9286 20.7614 12.8521 20.7614 11.6364H19.7614H18.7614C18.7614 12.6933 18.5934 13.3668 18.3657 13.7635L19.233 14.2614ZM19.7614 11.6364H20.7614C20.7614 10.8149 20.674 10.0673 20.475 9.4144L19.5185 9.70597L18.5619 9.99753C18.6868 10.4072 18.7614 10.9465 18.7614 11.6364H19.7614ZM19.5185 9.70597L20.4764 9.41909C20.2834 8.77462 19.9779 8.19259 19.507 7.7572L18.8281 8.49148L18.1493 9.22575C18.2806 9.34719 18.4353 9.57481 18.5605 9.99284L19.5185 9.70597ZM18.8281 8.49148L19.5104 7.76042C19.0208 7.30345 18.4152 7.07386 17.75 7.07386V8.07386V9.07386C17.9257 9.07386 18.0388 9.12268 18.1458 9.22253L18.8281 8.49148ZM17.75 8.07386V7.07386C16.7052 7.07386 15.9068 7.62841 15.4028 8.51139L16.2713 9.0071L17.1398 9.50281C17.346 9.14147 17.5335 9.07386 17.75 9.07386V8.07386ZM16.2713 9.0071L15.4038 8.50968C14.9251 9.34449 14.7386 10.4211 14.7386 11.6364H15.7386H16.7386C16.7386 10.5846 16.9073 9.90835 17.1388 9.50453L16.2713 9.0071ZM15.7386 11.6364H14.7386C14.7386 12.4564 14.8243 13.2016 15.0197 13.8508L15.9773 13.5625L16.9348 13.2742C16.8121 12.8666 16.7386 12.3277 16.7386 11.6364H15.7386ZM15.9773 13.5625L15.0197 13.8508C15.2125 14.4912 15.5164 15.0703 15.9848 15.503L16.6634 14.7685L17.3419 14.0339C17.2137 13.9155 17.0602 13.6907 16.9348 13.2742L15.9773 13.5625ZM16.6634 14.7685L15.9883 15.5062C16.4811 15.9572 17.087 16.1818 17.75 16.1818V15.1818V14.1818C17.5664 14.1818 17.4478 14.1308 17.3384 14.0307L16.6634 14.7685Z" fill="#E64545" mask="url(#path-5-outside-3_0_1)"/>
<mask id="path-7-outside-4_0_1" maskUnits="userSpaceOnUse" x="20.037" y="6" width="6" height="11" fill="black">
<rect fill="white" x="20.037" y="6" width="6" height="11"/>
<path d="M25.0086 7.27273V16H23.9518V8.38068H23.9007L21.77 9.79545V8.72159L23.9518 7.27273H25.0086Z"/>
</mask>
<path d="M25.0086 7.27273V16H23.9518V8.38068H23.9007L21.77 9.79545V8.72159L23.9518 7.27273H25.0086Z" fill="black"/>
<path d="M25.0086 7.27273H26.0086V6.27273H25.0086V7.27273ZM25.0086 16V17H26.0086V16H25.0086ZM23.9518 16H22.9518V17H23.9518V16ZM23.9518 8.38068H24.9518V7.38068H23.9518V8.38068ZM23.9007 8.38068V7.38068H23.5989L23.3475 7.54761L23.9007 8.38068ZM21.77 9.79545H20.77V11.6598L22.3232 10.6285L21.77 9.79545ZM21.77 8.72159L21.2168 7.88854L20.77 8.18525V8.72159H21.77ZM23.9518 7.27273V6.27273H23.65L23.3986 6.43968L23.9518 7.27273ZM25.0086 7.27273H24.0086V16H25.0086H26.0086V7.27273H25.0086ZM25.0086 16V15H23.9518V16V17H25.0086V16ZM23.9518 16H24.9518V8.38068H23.9518H22.9518V16H23.9518ZM23.9518 8.38068V7.38068H23.9007V8.38068V9.38068H23.9518V8.38068ZM23.9007 8.38068L23.3475 7.54761L21.2168 8.96238L21.77 9.79545L22.3232 10.6285L24.4538 9.21376L23.9007 8.38068ZM21.77 9.79545H22.77V8.72159H21.77H20.77V9.79545H21.77ZM21.77 8.72159L22.3232 9.55464L24.505 8.10578L23.9518 7.27273L23.3986 6.43968L21.2168 7.88854L21.77 8.72159ZM23.9518 7.27273V8.27273H25.0086V7.27273V6.27273H23.9518V7.27273Z" fill="#E64545" mask="url(#path-7-outside-4_0_1)"/>
</svg>
