<svg width="46" height="18" viewBox="0 0 46 18" fill="none" xmlns="http://www.w3.org/2000/svg">
<rect x="0.5" y="0.5" width="45" height="17" rx="7.5" fill="#D9D9D9" stroke="#B33535"/>
<mask id="path-2-outside-1_0_1" maskUnits="userSpaceOnUse" x="4" y="3" width="38" height="14" fill="black">
<rect fill="white" x="4" y="3" width="38" height="14"/>
<path d="M6.92614 4.27273V13H5.92045V4.27273H6.92614ZM11.4272 13.1364C10.8363 13.1364 10.3178 12.9957 9.8718 12.7145C9.42862 12.4332 9.08203 12.0398 8.83203 11.5341C8.58487 11.0284 8.46129 10.4375 8.46129 9.76136C8.46129 9.07955 8.58487 8.48437 8.83203 7.97585C9.08203 7.46733 9.42862 7.07244 9.8718 6.79119C10.3178 6.50994 10.8363 6.36932 11.4272 6.36932C12.0181 6.36932 12.5352 6.50994 12.9783 6.79119C13.4244 7.07244 13.771 7.46733 14.0181 7.97585C14.2681 8.48437 14.3931 9.07955 14.3931 9.76136C14.3931 10.4375 14.2681 11.0284 14.0181 11.5341C13.771 12.0398 13.4244 12.4332 12.9783 12.7145C12.5352 12.9957 12.0181 13.1364 11.4272 13.1364ZM11.4272 12.233C11.8761 12.233 12.2454 12.1179 12.5352 11.8878C12.8249 11.6577 13.0394 11.3551 13.1786 10.9801C13.3178 10.6051 13.3874 10.1989 13.3874 9.76136C13.3874 9.32386 13.3178 8.91619 13.1786 8.53835C13.0394 8.16051 12.8249 7.85511 12.5352 7.62216C12.2454 7.3892 11.8761 7.27273 11.4272 7.27273C10.9783 7.27273 10.609 7.3892 10.3192 7.62216C10.0295 7.85511 9.81499 8.16051 9.67578 8.53835C9.53658 8.91619 9.46697 9.32386 9.46697 9.76136C9.46697 10.1989 9.53658 10.6051 9.67578 10.9801C9.81499 11.3551 10.0295 11.6577 10.3192 11.8878C10.609 12.1179 10.9783 12.233 11.4272 12.233ZM18.5703 15.5909C18.0845 15.5909 17.6669 15.5284 17.3175 15.4034C16.968 15.2812 16.6768 15.1193 16.4439 14.9176C16.2138 14.7188 16.0305 14.5057 15.8942 14.2784L16.6953 13.7159C16.7862 13.8352 16.9013 13.9716 17.0405 14.125C17.1797 14.2812 17.37 14.4162 17.6115 14.5298C17.8558 14.6463 18.1754 14.7045 18.5703 14.7045C19.0987 14.7045 19.5348 14.5767 19.8786 14.321C20.2223 14.0653 20.3942 13.6648 20.3942 13.1193V11.7898H20.3089C20.2351 11.9091 20.13 12.0568 19.9936 12.233C19.8601 12.4062 19.6669 12.5611 19.4141 12.6974C19.1641 12.831 18.826 12.8977 18.3999 12.8977C17.8714 12.8977 17.397 12.7727 16.9766 12.5227C16.5589 12.2727 16.228 11.9091 15.9837 11.4318C15.7422 10.9545 15.6214 10.375 15.6214 9.69318C15.6214 9.02273 15.7393 8.43892 15.9751 7.94176C16.2109 7.44176 16.5391 7.0554 16.9595 6.78267C17.38 6.5071 17.8658 6.36932 18.4169 6.36932C18.843 6.36932 19.1811 6.44034 19.4311 6.58239C19.6839 6.72159 19.8771 6.88068 20.0107 7.05966C20.147 7.2358 20.2521 7.38068 20.326 7.49432H20.4283V6.45455H21.3999V13.1875C21.3999 13.75 21.272 14.2074 21.0163 14.5597C20.7635 14.9148 20.4226 15.1747 19.9936 15.3395C19.5675 15.5071 19.093 15.5909 18.5703 15.5909ZM18.5362 11.9943C18.9396 11.9943 19.2805 11.902 19.5589 11.7173C19.8374 11.5327 20.049 11.267 20.1939 10.9205C20.3388 10.5739 20.4112 10.1591 20.4112 9.67614C20.4112 9.20455 20.3402 8.78835 20.1982 8.42756C20.0561 8.06676 19.8459 7.78409 19.5675 7.57955C19.2891 7.375 18.9453 7.27273 18.5362 7.27273C18.1101 7.27273 17.755 7.38068 17.4709 7.59659C17.1896 7.8125 16.978 8.10227 16.8359 8.46591C16.6967 8.82955 16.6271 9.23295 16.6271 9.67614C16.6271 10.1307 16.6982 10.5327 16.8402 10.8821C16.9851 11.2287 17.1982 11.5014 17.4794 11.7003C17.7635 11.8963 18.1158 11.9943 18.5362 11.9943ZM25.8999 13.1364C25.3089 13.1364 24.7905 12.9957 24.3445 12.7145C23.9013 12.4332 23.5547 12.0398 23.3047 11.5341C23.0575 11.0284 22.9339 10.4375 22.9339 9.76136C22.9339 9.07955 23.0575 8.48437 23.3047 7.97585C23.5547 7.46733 23.9013 7.07244 24.3445 6.79119C24.7905 6.50994 25.3089 6.36932 25.8999 6.36932C26.4908 6.36932 27.0078 6.50994 27.451 6.79119C27.897 7.07244 28.2436 7.46733 28.4908 7.97585C28.7408 8.48437 28.8658 9.07955 28.8658 9.76136C28.8658 10.4375 28.7408 11.0284 28.4908 11.5341C28.2436 12.0398 27.897 12.4332 27.451 12.7145C27.0078 12.9957 26.4908 13.1364 25.8999 13.1364ZM25.8999 12.233C26.3487 12.233 26.718 12.1179 27.0078 11.8878C27.2976 11.6577 27.5121 11.3551 27.6513 10.9801C27.7905 10.6051 27.8601 10.1989 27.8601 9.76136C27.8601 9.32386 27.7905 8.91619 27.6513 8.53835C27.5121 8.16051 27.2976 7.85511 27.0078 7.62216C26.718 7.3892 26.3487 7.27273 25.8999 7.27273C25.451 7.27273 25.0817 7.3892 24.7919 7.62216C24.5021 7.85511 24.2876 8.16051 24.1484 8.53835C24.0092 8.91619 23.9396 9.32386 23.9396 9.76136C23.9396 10.1989 24.0092 10.6051 24.1484 10.9801C24.2876 11.3551 24.5021 11.6577 24.7919 11.8878C25.0817 12.1179 25.451 12.233 25.8999 12.233ZM34.5259 10.3239V6.45455H35.5316V13H34.5259V11.892H34.4577C34.3043 12.2244 34.0657 12.5071 33.7418 12.7401C33.418 12.9702 33.0089 13.0852 32.5146 13.0852C32.1055 13.0852 31.7418 12.9957 31.4237 12.8168C31.1055 12.6349 30.8555 12.3622 30.6737 11.9986C30.4918 11.6321 30.4009 11.1705 30.4009 10.6136V6.45455H31.4066V10.5455C31.4066 11.0227 31.5401 11.4034 31.8072 11.6875C32.0771 11.9716 32.4208 12.1136 32.8384 12.1136C33.0884 12.1136 33.3427 12.0497 33.6012 11.9219C33.8626 11.794 34.0813 11.598 34.2575 11.3338C34.4364 11.0696 34.5259 10.733 34.5259 10.3239ZM40.2202 6.45455V7.30682H36.8281V6.45455H40.2202ZM37.8168 4.88636H38.8224V11.125C38.8224 11.4091 38.8636 11.6222 38.946 11.7642C39.0313 11.9034 39.1392 11.9972 39.2699 12.0455C39.4034 12.0909 39.544 12.1136 39.6918 12.1136C39.8026 12.1136 39.8935 12.108 39.9645 12.0966C40.0355 12.0824 40.0923 12.071 40.1349 12.0625L40.3395 12.9659C40.2713 12.9915 40.1761 13.017 40.054 13.0426C39.9318 13.071 39.777 13.0852 39.5895 13.0852C39.3054 13.0852 39.027 13.0241 38.7543 12.902C38.4844 12.7798 38.2599 12.5938 38.081 12.3438C37.9048 12.0938 37.8168 11.7784 37.8168 11.3977V4.88636Z"/>
</mask>
<path d="M6.92614 4.27273V13H5.92045V4.27273H6.92614ZM11.4272 13.1364C10.8363 13.1364 10.3178 12.9957 9.8718 12.7145C9.42862 12.4332 9.08203 12.0398 8.83203 11.5341C8.58487 11.0284 8.46129 10.4375 8.46129 9.76136C8.46129 9.07955 8.58487 8.48437 8.83203 7.97585C9.08203 7.46733 9.42862 7.07244 9.8718 6.79119C10.3178 6.50994 10.8363 6.36932 11.4272 6.36932C12.0181 6.36932 12.5352 6.50994 12.9783 6.79119C13.4244 7.07244 13.771 7.46733 14.0181 7.97585C14.2681 8.48437 14.3931 9.07955 14.3931 9.76136C14.3931 10.4375 14.2681 11.0284 14.0181 11.5341C13.771 12.0398 13.4244 12.4332 12.9783 12.7145C12.5352 12.9957 12.0181 13.1364 11.4272 13.1364ZM11.4272 12.233C11.8761 12.233 12.2454 12.1179 12.5352 11.8878C12.8249 11.6577 13.0394 11.3551 13.1786 10.9801C13.3178 10.6051 13.3874 10.1989 13.3874 9.76136C13.3874 9.32386 13.3178 8.91619 13.1786 8.53835C13.0394 8.16051 12.8249 7.85511 12.5352 7.62216C12.2454 7.3892 11.8761 7.27273 11.4272 7.27273C10.9783 7.27273 10.609 7.3892 10.3192 7.62216C10.0295 7.85511 9.81499 8.16051 9.67578 8.53835C9.53658 8.91619 9.46697 9.32386 9.46697 9.76136C9.46697 10.1989 9.53658 10.6051 9.67578 10.9801C9.81499 11.3551 10.0295 11.6577 10.3192 11.8878C10.609 12.1179 10.9783 12.233 11.4272 12.233ZM18.5703 15.5909C18.0845 15.5909 17.6669 15.5284 17.3175 15.4034C16.968 15.2812 16.6768 15.1193 16.4439 14.9176C16.2138 14.7188 16.0305 14.5057 15.8942 14.2784L16.6953 13.7159C16.7862 13.8352 16.9013 13.9716 17.0405 14.125C17.1797 14.2812 17.37 14.4162 17.6115 14.5298C17.8558 14.6463 18.1754 14.7045 18.5703 14.7045C19.0987 14.7045 19.5348 14.5767 19.8786 14.321C20.2223 14.0653 20.3942 13.6648 20.3942 13.1193V11.7898H20.3089C20.2351 11.9091 20.13 12.0568 19.9936 12.233C19.8601 12.4062 19.6669 12.5611 19.4141 12.6974C19.1641 12.831 18.826 12.8977 18.3999 12.8977C17.8714 12.8977 17.397 12.7727 16.9766 12.5227C16.5589 12.2727 16.228 11.9091 15.9837 11.4318C15.7422 10.9545 15.6214 10.375 15.6214 9.69318C15.6214 9.02273 15.7393 8.43892 15.9751 7.94176C16.2109 7.44176 16.5391 7.0554 16.9595 6.78267C17.38 6.5071 17.8658 6.36932 18.4169 6.36932C18.843 6.36932 19.1811 6.44034 19.4311 6.58239C19.6839 6.72159 19.8771 6.88068 20.0107 7.05966C20.147 7.2358 20.2521 7.38068 20.326 7.49432H20.4283V6.45455H21.3999V13.1875C21.3999 13.75 21.272 14.2074 21.0163 14.5597C20.7635 14.9148 20.4226 15.1747 19.9936 15.3395C19.5675 15.5071 19.093 15.5909 18.5703 15.5909ZM18.5362 11.9943C18.9396 11.9943 19.2805 11.902 19.5589 11.7173C19.8374 11.5327 20.049 11.267 20.1939 10.9205C20.3388 10.5739 20.4112 10.1591 20.4112 9.67614C20.4112 9.20455 20.3402 8.78835 20.1982 8.42756C20.0561 8.06676 19.8459 7.78409 19.5675 7.57955C19.2891 7.375 18.9453 7.27273 18.5362 7.27273C18.1101 7.27273 17.755 7.38068 17.4709 7.59659C17.1896 7.8125 16.978 8.10227 16.8359 8.46591C16.6967 8.82955 16.6271 9.23295 16.6271 9.67614C16.6271 10.1307 16.6982 10.5327 16.8402 10.8821C16.9851 11.2287 17.1982 11.5014 17.4794 11.7003C17.7635 11.8963 18.1158 11.9943 18.5362 11.9943ZM25.8999 13.1364C25.3089 13.1364 24.7905 12.9957 24.3445 12.7145C23.9013 12.4332 23.5547 12.0398 23.3047 11.5341C23.0575 11.0284 22.9339 10.4375 22.9339 9.76136C22.9339 9.07955 23.0575 8.48437 23.3047 7.97585C23.5547 7.46733 23.9013 7.07244 24.3445 6.79119C24.7905 6.50994 25.3089 6.36932 25.8999 6.36932C26.4908 6.36932 27.0078 6.50994 27.451 6.79119C27.897 7.07244 28.2436 7.46733 28.4908 7.97585C28.7408 8.48437 28.8658 9.07955 28.8658 9.76136C28.8658 10.4375 28.7408 11.0284 28.4908 11.5341C28.2436 12.0398 27.897 12.4332 27.451 12.7145C27.0078 12.9957 26.4908 13.1364 25.8999 13.1364ZM25.8999 12.233C26.3487 12.233 26.718 12.1179 27.0078 11.8878C27.2976 11.6577 27.5121 11.3551 27.6513 10.9801C27.7905 10.6051 27.8601 10.1989 27.8601 9.76136C27.8601 9.32386 27.7905 8.91619 27.6513 8.53835C27.5121 8.16051 27.2976 7.85511 27.0078 7.62216C26.718 7.3892 26.3487 7.27273 25.8999 7.27273C25.451 7.27273 25.0817 7.3892 24.7919 7.62216C24.5021 7.85511 24.2876 8.16051 24.1484 8.53835C24.0092 8.91619 23.9396 9.32386 23.9396 9.76136C23.9396 10.1989 24.0092 10.6051 24.1484 10.9801C24.2876 11.3551 24.5021 11.6577 24.7919 11.8878C25.0817 12.1179 25.451 12.233 25.8999 12.233ZM34.5259 10.3239V6.45455H35.5316V13H34.5259V11.892H34.4577C34.3043 12.2244 34.0657 12.5071 33.7418 12.7401C33.418 12.9702 33.0089 13.0852 32.5146 13.0852C32.1055 13.0852 31.7418 12.9957 31.4237 12.8168C31.1055 12.6349 30.8555 12.3622 30.6737 11.9986C30.4918 11.6321 30.4009 11.1705 30.4009 10.6136V6.45455H31.4066V10.5455C31.4066 11.0227 31.5401 11.4034 31.8072 11.6875C32.0771 11.9716 32.4208 12.1136 32.8384 12.1136C33.0884 12.1136 33.3427 12.0497 33.6012 11.9219C33.8626 11.794 34.0813 11.598 34.2575 11.3338C34.4364 11.0696 34.5259 10.733 34.5259 10.3239ZM40.2202 6.45455V7.30682H36.8281V6.45455H40.2202ZM37.8168 4.88636H38.8224V11.125C38.8224 11.4091 38.8636 11.6222 38.946 11.7642C39.0313 11.9034 39.1392 11.9972 39.2699 12.0455C39.4034 12.0909 39.544 12.1136 39.6918 12.1136C39.8026 12.1136 39.8935 12.108 39.9645 12.0966C40.0355 12.0824 40.0923 12.071 40.1349 12.0625L40.3395 12.9659C40.2713 12.9915 40.1761 13.017 40.054 13.0426C39.9318 13.071 39.777 13.0852 39.5895 13.0852C39.3054 13.0852 39.027 13.0241 38.7543 12.902C38.4844 12.7798 38.2599 12.5938 38.081 12.3438C37.9048 12.0938 37.8168 11.7784 37.8168 11.3977V4.88636Z" fill="black"/>
<path d="M6.92614 4.27273H7.92614V3.27273H6.92614V4.27273ZM6.92614 13V14H7.92614V13H6.92614ZM5.92045 13H4.92045V14H5.92045V13ZM5.92045 4.27273V3.27273H4.92045V4.27273H5.92045ZM6.92614 4.27273H5.92614V13H6.92614H7.92614V4.27273H6.92614ZM6.92614 13V12H5.92045V13V14H6.92614V13ZM5.92045 13H6.92045V4.27273H5.92045H4.92045V13H5.92045ZM5.92045 4.27273V5.27273H6.92614V4.27273V3.27273H5.92045V4.27273ZM9.8718 12.7145L9.33598 13.5588L9.33842 13.5604L9.8718 12.7145ZM8.83203 11.5341L7.93359 11.9732L7.9356 11.9773L8.83203 11.5341ZM8.83203 7.97585L7.93461 7.53466L7.93264 7.53872L8.83203 7.97585ZM9.8718 6.79119L9.33842 5.94532L9.33598 5.94686L9.8718 6.79119ZM12.9783 6.79119L12.4425 7.63553L12.445 7.63707L12.9783 6.79119ZM14.0181 7.97585L13.1187 8.41299L13.1207 8.41704L14.0181 7.97585ZM14.0181 11.5341L13.1217 11.0909L13.1197 11.095L14.0181 11.5341ZM12.9783 12.7145L12.445 11.8686L12.4425 11.8702L12.9783 12.7145ZM12.5352 11.8878L11.9133 11.1047L11.9133 11.1047L12.5352 11.8878ZM13.1786 10.9801L14.1161 11.3281L14.1161 11.3281L13.1786 10.9801ZM13.1786 8.53835L14.117 8.19265L14.117 8.19265L13.1786 8.53835ZM12.5352 7.62216L13.1617 6.84278L13.1617 6.84278L12.5352 7.62216ZM10.3192 7.62216L9.69269 6.84278L9.69269 6.84278L10.3192 7.62216ZM9.67578 8.53835L8.73744 8.19265L8.73744 8.19265L9.67578 8.53835ZM9.67578 10.9801L8.73829 11.3281L8.73829 11.3281L9.67578 10.9801ZM10.3192 11.8878L10.9411 11.1047L10.9411 11.1047L10.3192 11.8878ZM11.4272 13.1364V12.1364C11.0016 12.1364 10.6728 12.0374 10.4052 11.8686L9.8718 12.7145L9.33842 13.5604C9.96287 13.9541 10.671 14.1364 11.4272 14.1364V13.1364ZM9.8718 12.7145L10.4076 11.8702C10.1307 11.6944 9.90357 11.4451 9.72846 11.0909L8.83203 11.5341L7.9356 11.9773C8.26049 12.6344 8.72654 13.1721 9.33598 13.5588L9.8718 12.7145ZM8.83203 11.5341L9.73046 11.095C9.56226 10.7508 9.46129 10.3156 9.46129 9.76136H8.46129H7.46129C7.46129 10.5594 7.60749 11.306 7.9336 11.9732L8.83203 11.5341ZM8.46129 9.76136H9.46129C9.46129 9.20024 9.56272 8.7601 9.73143 8.41299L8.83203 7.97585L7.93264 7.53872C7.60703 8.20865 7.46129 8.95885 7.46129 9.76136H8.46129ZM8.83203 7.97585L9.72945 8.41704C9.90499 8.05997 10.1321 7.81037 10.4076 7.63552L9.8718 6.79119L9.33598 5.94686C8.72514 6.33451 8.25907 6.87469 7.93462 7.53466L8.83203 7.97585ZM9.8718 6.79119L10.4052 7.63707C10.6728 7.46833 11.0016 7.36932 11.4272 7.36932V6.36932V5.36932C10.671 5.36932 9.96287 5.55156 9.33842 5.94532L9.8718 6.79119ZM11.4272 6.36932V7.36932C11.8529 7.36932 12.1791 7.46836 12.4425 7.63552L12.9783 6.79119L13.5142 5.94686C12.8912 5.55153 12.1833 5.36932 11.4272 5.36932V6.36932ZM12.9783 6.79119L12.445 7.63707C12.7218 7.81163 12.9469 8.05955 13.1187 8.41299L14.0181 7.97585L14.9175 7.53872C14.595 6.87511 14.1269 6.33326 13.5117 5.94532L12.9783 6.79119ZM14.0181 7.97585L13.1207 8.41704C13.2909 8.76315 13.3931 9.20181 13.3931 9.76136H14.3931H15.3931C15.3931 8.95728 15.2454 8.2056 14.9155 7.53466L14.0181 7.97585ZM14.3931 9.76136H13.3931C13.3931 10.314 13.2913 10.7478 13.1217 11.0909L14.0181 11.5341L14.9145 11.9773C15.2449 11.3091 15.3931 10.561 15.3931 9.76136H14.3931ZM14.0181 11.5341L13.1197 11.095C12.9483 11.4455 12.7232 11.6932 12.445 11.8686L12.9783 12.7145L13.5117 13.5604C14.1255 13.1733 14.5936 12.634 14.9165 11.9732L14.0181 11.5341ZM12.9783 12.7145L12.4425 11.8702C12.1791 12.0373 11.8529 12.1364 11.4272 12.1364V13.1364V14.1364C12.1833 14.1364 12.8912 13.9542 13.5142 13.5588L12.9783 12.7145ZM11.4272 12.233V13.233C12.0522 13.233 12.6551 13.0695 13.157 12.6709L12.5352 11.8878L11.9133 11.1047C11.8357 11.1663 11.6999 11.233 11.4272 11.233V12.233ZM12.5352 11.8878L13.157 12.6709C13.6013 12.3181 13.9187 11.8599 14.1161 11.3281L13.1786 10.9801L12.2411 10.6321C12.1601 10.8504 12.0486 10.9972 11.9133 11.1047L12.5352 11.8878ZM13.1786 10.9801L14.1161 11.3281C14.3004 10.8318 14.3874 10.3065 14.3874 9.76136H13.3874H12.3874C12.3874 10.0912 12.3353 10.3785 12.2411 10.6321L13.1786 10.9801ZM13.3874 9.76136H14.3874C14.3874 9.21612 14.3003 8.69039 14.117 8.19265L13.1786 8.53835L12.2403 8.88406C12.3353 9.142 12.3874 9.43161 12.3874 9.76136H13.3874ZM13.1786 8.53835L14.117 8.19265C13.9205 7.65928 13.6045 7.19874 13.1617 6.84278L12.5352 7.62216L11.9086 8.40153C12.0454 8.51149 12.1584 8.66174 12.2403 8.88406L13.1786 8.53835ZM12.5352 7.62216L13.1617 6.84278C12.6596 6.43915 12.055 6.27273 11.4272 6.27273V7.27273V8.27273C11.6971 8.27273 11.8311 8.33926 11.9086 8.40153L12.5352 7.62216ZM11.4272 7.27273V6.27273C10.7994 6.27273 10.1948 6.43915 9.69269 6.84278L10.3192 7.62216L10.9458 8.40153C11.0233 8.33926 11.1573 8.27273 11.4272 8.27273V7.27273ZM10.3192 7.62216L9.69269 6.84278C9.24992 7.19874 8.93394 7.65928 8.73744 8.19265L9.67578 8.53835L10.6141 8.88406C10.696 8.66174 10.809 8.51149 10.9458 8.40153L10.3192 7.62216ZM9.67578 8.53835L8.73744 8.19265C8.55406 8.69039 8.46697 9.21612 8.46697 9.76136H9.46697H10.467C10.467 9.43161 10.5191 9.142 10.6141 8.88406L9.67578 8.53835ZM9.46697 9.76136H8.46697C8.46697 10.3065 8.55404 10.8318 8.73829 11.3281L9.67578 10.9801L10.6133 10.6321C10.5191 10.3785 10.467 10.0912 10.467 9.76136H9.46697ZM9.67578 10.9801L8.73829 11.3281C8.93568 11.8599 9.25311 12.3181 9.69737 12.6709L10.3192 11.8878L10.9411 11.1047C10.8058 10.9972 10.6943 10.8504 10.6133 10.6321L9.67578 10.9801ZM10.3192 11.8878L9.69736 12.6709C10.1993 13.0695 10.8022 13.233 11.4272 13.233V12.233V11.233C11.1545 11.233 11.0187 11.1663 10.9411 11.1047L10.3192 11.8878ZM17.3175 15.4034L17.6543 14.4618L17.6475 14.4594L17.3175 15.4034ZM16.4439 14.9176L17.0985 14.1616L17.0978 14.161L16.4439 14.9176ZM15.8942 14.2784L15.3195 13.46L14.5578 13.9948L15.0367 14.7929L15.8942 14.2784ZM16.6953 13.7159L17.4907 13.1099L16.9078 12.3448L16.1207 12.8975L16.6953 13.7159ZM17.0405 14.125L17.7872 13.4598L17.781 13.453L17.0405 14.125ZM17.6115 14.5298L18.0419 13.6272L18.0373 13.625L17.6115 14.5298ZM19.8786 14.321L20.4754 15.1234L20.4754 15.1234L19.8786 14.321ZM20.3942 11.7898H21.3942V10.7898H20.3942V11.7898ZM20.3089 11.7898V10.7898H19.7519L19.4587 11.2634L20.3089 11.7898ZM19.9936 12.233L19.2029 11.6208L19.2015 11.6226L19.9936 12.233ZM19.4141 12.6974L19.8852 13.5795L19.8888 13.5776L19.4141 12.6974ZM16.9766 12.5227L16.4629 13.3807L16.4655 13.3823L16.9766 12.5227ZM15.9837 11.4318L15.0914 11.8833L15.0935 11.8875L15.9837 11.4318ZM15.9751 7.94176L16.8787 8.37029L16.8796 8.3683L15.9751 7.94176ZM16.9595 6.78267L17.5037 7.62164L17.5077 7.61904L16.9595 6.78267ZM19.4311 6.58239L18.9371 7.45192L18.9488 7.45839L19.4311 6.58239ZM20.0107 7.05966L19.2091 7.65762L19.2145 7.66477L19.2199 7.67183L20.0107 7.05966ZM20.326 7.49432L19.4876 8.03931L19.7833 8.49432H20.326V7.49432ZM20.4283 7.49432V8.49432H21.4283V7.49432H20.4283ZM20.4283 6.45455V5.45455H19.4283V6.45455H20.4283ZM21.3999 6.45455H22.3999V5.45455H21.3999V6.45455ZM21.0163 14.5597L20.207 13.9722L20.2017 13.9797L21.0163 14.5597ZM19.9936 15.3395L19.635 14.406L19.6276 14.4089L19.9936 15.3395ZM19.5589 11.7173L19.0062 10.884L19.0062 10.884L19.5589 11.7173ZM20.1939 10.9205L21.1165 11.3061L21.1165 11.3061L20.1939 10.9205ZM20.1982 8.42756L21.1286 8.06122L21.1286 8.06122L20.1982 8.42756ZM19.5675 7.57955L18.9754 8.38543L18.9754 8.38543L19.5675 7.57955ZM17.4709 7.59659L16.8658 6.80042L16.8619 6.80337L17.4709 7.59659ZM16.8359 8.46591L15.9045 8.10205L15.902 8.1084L16.8359 8.46591ZM16.8402 10.8821L15.9138 11.2587L15.9176 11.2678L16.8402 10.8821ZM17.4794 11.7003L16.902 12.5168L16.9115 12.5234L17.4794 11.7003ZM18.5703 15.5909V14.5909C18.1658 14.5909 17.868 14.5383 17.6543 14.4618L17.3175 15.4034L16.9807 16.345C17.4658 16.5185 18.0032 16.5909 18.5703 16.5909V15.5909ZM17.3175 15.4034L17.6475 14.4594C17.3937 14.3707 17.219 14.266 17.0985 14.1616L16.4439 14.9176L15.7893 15.6736C16.1347 15.9727 16.5423 16.1918 16.9875 16.3474L17.3175 15.4034ZM16.4439 14.9176L17.0978 14.161C16.9363 14.0215 16.8261 13.8879 16.7517 13.7639L15.8942 14.2784L15.0367 14.7929C15.235 15.1235 15.4912 15.416 15.79 15.6742L16.4439 14.9176ZM15.8942 14.2784L16.4688 15.0968L17.2699 14.5343L16.6953 13.7159L16.1207 12.8975L15.3195 13.46L15.8942 14.2784ZM16.6953 13.7159L15.8999 14.322C16.0132 14.4707 16.1481 14.6297 16.2999 14.797L17.0405 14.125L17.781 13.453C17.6544 13.3135 17.5592 13.1997 17.4907 13.1099L16.6953 13.7159ZM17.0405 14.125L16.2938 14.7902C16.5438 15.0707 16.8545 15.2788 17.1857 15.4346L17.6115 14.5298L18.0373 13.625C17.8856 13.5536 17.8156 13.4918 17.7871 13.4598L17.0405 14.125ZM17.6115 14.5298L17.1812 15.4325C17.6071 15.6356 18.0896 15.7045 18.5703 15.7045V14.7045V13.7045C18.2613 13.7045 18.1046 13.6571 18.0418 13.6272L17.6115 14.5298ZM18.5703 14.7045V15.7045C19.2626 15.7045 19.9222 15.5349 20.4754 15.1234L19.8786 14.321L19.2817 13.5186C19.1474 13.6185 18.9348 13.7045 18.5703 13.7045V14.7045ZM19.8786 14.321L20.4754 15.1234C21.1406 14.6286 21.3942 13.8856 21.3942 13.1193H20.3942H19.3942C19.3942 13.444 19.304 13.5021 19.2817 13.5186L19.8786 14.321ZM20.3942 13.1193H21.3942V11.7898H20.3942H19.3942V13.1193H20.3942ZM20.3942 11.7898V10.7898H20.3089V11.7898V12.7898H20.3942V11.7898ZM20.3089 11.7898L19.4587 11.2634C19.4106 11.3412 19.3287 11.4582 19.2029 11.6208L19.9936 12.233L20.7843 12.8451C20.9312 12.6554 21.0596 12.477 21.1592 12.3161L20.3089 11.7898ZM19.9936 12.233L19.2015 11.6226C19.176 11.6557 19.1055 11.7277 18.9394 11.8173L19.4141 12.6974L19.8888 13.5776C20.2283 13.3945 20.5442 13.1568 20.7857 12.8433L19.9936 12.233ZM19.4141 12.6974L18.943 11.8154C18.8927 11.8422 18.7377 11.8977 18.3999 11.8977V12.8977V13.8977C18.9143 13.8977 19.4354 13.8197 19.8852 13.5795L19.4141 12.6974ZM18.3999 12.8977V11.8977C18.0364 11.8977 17.7411 11.8139 17.4876 11.6632L16.9766 12.5227L16.4655 13.3823C17.0529 13.7315 17.7065 13.8977 18.3999 13.8977V12.8977ZM16.9766 12.5227L17.4902 11.6647C17.2494 11.5206 17.0418 11.3042 16.8738 10.9761L15.9837 11.4318L15.0935 11.8875C15.4142 12.514 15.8685 13.0249 16.4629 13.3807L16.9766 12.5227ZM15.9837 11.4318L16.876 10.9804C16.722 10.6761 16.6214 10.26 16.6214 9.69318H15.6214H14.6214C14.6214 10.49 14.7623 11.2329 15.0914 11.8833L15.9837 11.4318ZM15.6214 9.69318H16.6214C16.6214 9.13917 16.7187 8.7075 16.8787 8.37029L15.9751 7.94176L15.0716 7.51323C14.76 8.17034 14.6214 8.90628 14.6214 9.69318H15.6214ZM15.9751 7.94176L16.8796 8.3683C17.0445 8.0187 17.2552 7.78282 17.5037 7.62163L16.9595 6.78267L16.4153 5.94371C15.8229 6.32797 15.3774 6.86482 15.0707 7.51522L15.9751 7.94176ZM16.9595 6.78267L17.5077 7.61904C17.7497 7.46045 18.041 7.36932 18.4169 7.36932V6.36932V5.36932C17.6905 5.36932 17.0103 5.55375 16.4114 5.9463L16.9595 6.78267ZM18.4169 6.36932V7.36932C18.7474 7.36932 18.8932 7.42689 18.9371 7.45184L19.4311 6.58239L19.9251 5.71293C19.469 5.45379 18.9387 5.36932 18.4169 5.36932V6.36932ZM19.4311 6.58239L18.9488 7.45839C19.1117 7.5481 19.1821 7.62133 19.2091 7.65762L20.0107 7.05966L20.8122 6.4617C20.5722 6.14003 20.2562 5.89508 19.9134 5.70638L19.4311 6.58239ZM20.0107 7.05966L19.2199 7.67183C19.3487 7.83812 19.4351 7.95858 19.4876 8.03931L20.326 7.49432L21.1644 6.94933C21.0692 6.80279 20.9454 6.63347 20.8014 6.44749L20.0107 7.05966ZM20.326 7.49432V8.49432H20.4283V7.49432V6.49432H20.326V7.49432ZM20.4283 7.49432H21.4283V6.45455H20.4283H19.4283V7.49432H20.4283ZM20.4283 6.45455V7.45455H21.3999V6.45455V5.45455H20.4283V6.45455ZM21.3999 6.45455H20.3999V13.1875H21.3999H22.3999V6.45455H21.3999ZM21.3999 13.1875H20.3999C20.3999 13.6007 20.3069 13.8347 20.207 13.9723L21.0163 14.5597L21.8256 15.1471C22.2372 14.5801 22.3999 13.8993 22.3999 13.1875H21.3999ZM21.0163 14.5597L20.2017 13.9797C20.0692 14.1658 19.891 14.3077 19.635 14.406L19.9936 15.3395L20.3522 16.273C20.9541 16.0418 21.4578 15.6638 21.8309 15.1397L21.0163 14.5597ZM19.9936 15.3395L19.6276 14.4089C19.3333 14.5246 18.9853 14.5909 18.5703 14.5909V15.5909V16.5909C19.2008 16.5909 19.8016 16.4896 20.3596 16.2701L19.9936 15.3395ZM18.5362 11.9943V12.9943C19.0949 12.9943 19.6381 12.8648 20.1117 12.5507L19.5589 11.7173L19.0062 10.884C18.923 10.9392 18.7843 10.9943 18.5362 10.9943V11.9943ZM19.5589 11.7173L20.1117 12.5507C20.575 12.2434 20.9052 11.8117 21.1165 11.3061L20.1939 10.9205L19.2713 10.5348C19.1928 10.7223 19.0997 10.8219 19.0062 10.884L19.5589 11.7173ZM20.1939 10.9205L21.1165 11.3061C21.3248 10.8079 21.4112 10.2553 21.4112 9.67614H20.4112H19.4112C19.4112 10.0629 19.3528 10.3398 19.2713 10.5348L20.1939 10.9205ZM20.4112 9.67614H21.4112C21.4112 9.1055 21.3254 8.56093 21.1286 8.06122L20.1982 8.42756L19.2677 8.79389C19.355 9.01578 19.4112 9.30359 19.4112 9.67614H20.4112ZM20.1982 8.42756L21.1286 8.06122C20.9262 7.54704 20.608 7.10316 20.1595 6.77366L19.5675 7.57955L18.9754 8.38543C19.0837 8.46502 19.186 8.58648 19.2677 8.79389L20.1982 8.42756ZM19.5675 7.57955L20.1595 6.77366C19.6796 6.42102 19.1179 6.27273 18.5362 6.27273V7.27273V8.27273C18.7727 8.27273 18.8986 8.32898 18.9754 8.38543L19.5675 7.57955ZM18.5362 7.27273V6.27273C17.9353 6.27273 17.3558 6.42803 16.8658 6.80043L17.4709 7.59659L18.076 8.39275C18.1541 8.33334 18.2848 8.27273 18.5362 8.27273V7.27273ZM17.4709 7.59659L16.8619 6.80337C16.4217 7.14135 16.106 7.58627 15.9045 8.10206L16.8359 8.46591L17.7674 8.82976C17.85 8.61828 17.9576 8.48365 18.0798 8.38981L17.4709 7.59659ZM16.8359 8.46591L15.902 8.1084C15.7135 8.60081 15.6271 9.12747 15.6271 9.67614H16.6271H17.6271C17.6271 9.33844 17.6799 9.05829 17.7698 8.82342L16.8359 8.46591ZM16.6271 9.67614H15.6271C15.6271 10.2339 15.7143 10.7678 15.9138 11.2587L16.8402 10.8821L17.7666 10.5055C17.682 10.2975 17.6271 10.0274 17.6271 9.67614H16.6271ZM16.8402 10.8821L15.9176 11.2678C16.128 11.7713 16.4538 12.1998 16.9021 12.5168L17.4794 11.7003L18.0567 10.8838C17.9425 10.803 17.8421 10.6861 17.7628 10.4964L16.8402 10.8821ZM17.4794 11.7003L16.9115 12.5234C17.396 12.8577 17.9578 12.9943 18.5362 12.9943V11.9943V10.9943C18.2738 10.9943 18.131 10.9349 18.0473 10.8772L17.4794 11.7003ZM24.3445 12.7145L23.8086 13.5588L23.8111 13.5604L24.3445 12.7145ZM23.3047 11.5341L22.4062 11.9732L22.4083 11.9773L23.3047 11.5341ZM23.3047 7.97585L22.4073 7.53466L22.4053 7.53872L23.3047 7.97585ZM24.3445 6.79119L23.8111 5.94532L23.8086 5.94686L24.3445 6.79119ZM27.451 6.79119L26.9152 7.63553L26.9176 7.63707L27.451 6.79119ZM28.4908 7.97585L27.5914 8.41299L27.5934 8.41704L28.4908 7.97585ZM28.4908 11.5341L27.5943 11.0909L27.5923 11.095L28.4908 11.5341ZM27.451 12.7145L26.9176 11.8686L26.9152 11.8702L27.451 12.7145ZM27.0078 11.8878L26.3859 11.1047L26.3859 11.1047L27.0078 11.8878ZM27.6513 10.9801L28.5888 11.3281L28.5888 11.3281L27.6513 10.9801ZM27.6513 8.53835L28.5896 8.19265L28.5896 8.19265L27.6513 8.53835ZM27.0078 7.62216L27.6344 6.84278L27.6344 6.84278L27.0078 7.62216ZM24.7919 7.62216L24.1653 6.84278L24.1653 6.84278L24.7919 7.62216ZM24.1484 8.53835L23.2101 8.19265L23.2101 8.19265L24.1484 8.53835ZM24.1484 10.9801L23.2109 11.3281L23.2109 11.3281L24.1484 10.9801ZM24.7919 11.8878L25.4138 11.1047L25.4138 11.1047L24.7919 11.8878ZM25.8999 13.1364V12.1364C25.4743 12.1364 25.1454 12.0374 24.8778 11.8686L24.3445 12.7145L23.8111 13.5604C24.4355 13.9541 25.1436 14.1364 25.8999 14.1364V13.1364ZM24.3445 12.7145L24.8803 11.8702C24.6034 11.6944 24.3762 11.4451 24.2011 11.0909L23.3047 11.5341L22.4083 11.9773C22.7331 12.6344 23.1992 13.1721 23.8086 13.5588L24.3445 12.7145ZM23.3047 11.5341L24.2031 11.095C24.0349 10.7508 23.9339 10.3156 23.9339 9.76136H22.9339H21.9339C21.9339 10.5594 22.0801 11.306 22.4063 11.9732L23.3047 11.5341ZM22.9339 9.76136H23.9339C23.9339 9.20024 24.0354 8.7601 24.2041 8.41299L23.3047 7.97585L22.4053 7.53872C22.0797 8.20865 21.9339 8.95885 21.9339 9.76136H22.9339ZM23.3047 7.97585L24.2021 8.41704C24.3776 8.05997 24.6048 7.81037 24.8803 7.63552L24.3445 6.79119L23.8086 5.94686C23.1978 6.33451 22.7317 6.87469 22.4073 7.53466L23.3047 7.97585ZM24.3445 6.79119L24.8778 7.63707C25.1454 7.46833 25.4743 7.36932 25.8999 7.36932V6.36932V5.36932C25.1436 5.36932 24.4355 5.55156 23.8111 5.94532L24.3445 6.79119ZM25.8999 6.36932V7.36932C26.3256 7.36932 26.6518 7.46836 26.9152 7.63552L27.451 6.79119L27.9868 5.94686C27.3639 5.55153 26.656 5.36932 25.8999 5.36932V6.36932ZM27.451 6.79119L26.9176 7.63707C27.1944 7.81163 27.4196 8.05955 27.5914 8.41299L28.4908 7.97585L29.3902 7.53872C29.0676 6.87511 28.5996 6.33326 27.9844 5.94532L27.451 6.79119ZM28.4908 7.97585L27.5934 8.41704C27.7635 8.76315 27.8658 9.20181 27.8658 9.76136H28.8658H29.8658C29.8658 8.95728 29.718 8.2056 29.3882 7.53466L28.4908 7.97585ZM28.8658 9.76136H27.8658C27.8658 10.314 27.764 10.7478 27.5943 11.0909L28.4908 11.5341L29.3872 11.9773C29.7176 11.3091 29.8658 10.561 29.8658 9.76136H28.8658ZM28.4908 11.5341L27.5923 11.095C27.421 11.4455 27.1959 11.6932 26.9176 11.8686L27.451 12.7145L27.9844 13.5604C28.5982 13.1733 29.0662 12.634 29.3892 11.9732L28.4908 11.5341ZM27.451 12.7145L26.9152 11.8702C26.6518 12.0373 26.3256 12.1364 25.8999 12.1364V13.1364V14.1364C26.656 14.1364 27.3639 13.9542 27.9868 13.5588L27.451 12.7145ZM25.8999 12.233V13.233C26.5249 13.233 27.1277 13.0695 27.6297 12.6709L27.0078 11.8878L26.3859 11.1047C26.3083 11.1663 26.1725 11.233 25.8999 11.233V12.233ZM27.0078 11.8878L27.6297 12.6709C28.074 12.3181 28.3914 11.8599 28.5888 11.3281L27.6513 10.9801L26.7138 10.6321C26.6328 10.8504 26.5212 10.9972 26.3859 11.1047L27.0078 11.8878ZM27.6513 10.9801L28.5888 11.3281C28.773 10.8318 28.8601 10.3065 28.8601 9.76136H27.8601H26.8601C26.8601 10.0912 26.8079 10.3785 26.7138 10.6321L27.6513 10.9801ZM27.8601 9.76136H28.8601C28.8601 9.21612 28.773 8.69039 28.5896 8.19265L27.6513 8.53835L26.7129 8.88406C26.808 9.142 26.8601 9.43161 26.8601 9.76136H27.8601ZM27.6513 8.53835L28.5896 8.19265C28.3931 7.65928 28.0771 7.19874 27.6344 6.84278L27.0078 7.62216L26.3813 8.40153C26.518 8.51149 26.631 8.66174 26.7129 8.88406L27.6513 8.53835ZM27.0078 7.62216L27.6344 6.84278C27.1323 6.43915 26.5277 6.27273 25.8999 6.27273V7.27273V8.27273C26.1697 8.27273 26.3038 8.33926 26.3813 8.40153L27.0078 7.62216ZM25.8999 7.27273V6.27273C25.272 6.27273 24.6674 6.43915 24.1653 6.84278L24.7919 7.62216L25.4185 8.40153C25.4959 8.33926 25.63 8.27273 25.8999 8.27273V7.27273ZM24.7919 7.62216L24.1653 6.84278C23.7226 7.19874 23.4066 7.65928 23.2101 8.19265L24.1484 8.53835L25.0868 8.88406C25.1687 8.66174 25.2817 8.51149 25.4185 8.40153L24.7919 7.62216ZM24.1484 8.53835L23.2101 8.19265C23.0267 8.69039 22.9396 9.21612 22.9396 9.76136H23.9396H24.9396C24.9396 9.43161 24.9917 9.142 25.0868 8.88406L24.1484 8.53835ZM23.9396 9.76136H22.9396C22.9396 10.3065 23.0267 10.8318 23.2109 11.3281L24.1484 10.9801L25.0859 10.6321C24.9918 10.3785 24.9396 10.0912 24.9396 9.76136H23.9396ZM24.1484 10.9801L23.2109 11.3281C23.4083 11.8599 23.7258 12.3181 24.17 12.6709L24.7919 11.8878L25.4138 11.1047C25.2785 10.9972 25.1669 10.8504 25.0859 10.6321L24.1484 10.9801ZM24.7919 11.8878L24.17 12.6709C24.672 13.0695 25.2748 13.233 25.8999 13.233V12.233V11.233C25.6272 11.233 25.4914 11.1663 25.4138 11.1047L24.7919 11.8878ZM34.5259 6.45455V5.45455H33.5259V6.45455H34.5259ZM35.5316 6.45455H36.5316V5.45455H35.5316V6.45455ZM35.5316 13V14H36.5316V13H35.5316ZM34.5259 13H33.5259V14H34.5259V13ZM34.5259 11.892H35.5259V10.892H34.5259V11.892ZM34.4577 11.892V10.892H33.8179L33.5498 11.473L34.4577 11.892ZM33.7418 12.7401L34.321 13.5553L34.3258 13.5519L33.7418 12.7401ZM31.4237 12.8168L30.9275 13.685L30.9334 13.6883L31.4237 12.8168ZM30.6737 11.9986L29.7778 12.443L29.7792 12.4458L30.6737 11.9986ZM30.4009 6.45455V5.45455H29.4009V6.45455H30.4009ZM31.4066 6.45455H32.4066V5.45455H31.4066V6.45455ZM31.8072 11.6875L31.0785 12.3724L31.0822 12.3762L31.8072 11.6875ZM33.6012 11.9219L33.1618 11.0236L33.1579 11.0255L33.6012 11.9219ZM34.2575 11.3338L33.4295 10.7729L33.4254 10.7791L34.2575 11.3338ZM34.5259 10.3239H35.5259V6.45455H34.5259H33.5259V10.3239H34.5259ZM34.5259 6.45455V7.45455H35.5316V6.45455V5.45455H34.5259V6.45455ZM35.5316 6.45455H34.5316V13H35.5316H36.5316V6.45455H35.5316ZM35.5316 13V12H34.5259V13V14H35.5316V13ZM34.5259 13H35.5259V11.892H34.5259H33.5259V13H34.5259ZM34.5259 11.892V10.892H34.4577V11.892V12.892H34.5259V11.892ZM34.4577 11.892L33.5498 11.473C33.4751 11.6348 33.3546 11.7868 33.1579 11.9283L33.7418 12.7401L34.3258 13.5519C34.7768 13.2274 35.1336 12.814 35.3657 12.3111L34.4577 11.892ZM33.7418 12.7401L33.1626 11.9249C33.0454 12.0082 32.8525 12.0852 32.5146 12.0852V13.0852V14.0852C33.1652 14.0852 33.7905 13.9322 34.321 13.5552L33.7418 12.7401ZM32.5146 13.0852V12.0852C32.2561 12.0852 32.065 12.0302 31.9139 11.9452L31.4237 12.8168L30.9334 13.6883C31.4186 13.9613 31.9548 14.0852 32.5146 14.0852V13.0852ZM31.4237 12.8168L31.9198 11.9485C31.7915 11.8752 31.6716 11.7585 31.5681 11.5514L30.6737 11.9986L29.7792 12.4458C30.0393 12.9659 30.4194 13.3947 30.9275 13.685L31.4237 12.8168ZM30.6737 11.9986L31.5695 11.5541C31.4763 11.3664 31.4009 11.0691 31.4009 10.6136H30.4009H29.4009C29.4009 11.2718 29.5074 11.8978 29.7778 12.443L30.6737 11.9986ZM30.4009 10.6136H31.4009V6.45455H30.4009H29.4009V10.6136H30.4009ZM30.4009 6.45455V7.45455H31.4066V6.45455V5.45455H30.4009V6.45455ZM31.4066 6.45455H30.4066V10.5455H31.4066H32.4066V6.45455H31.4066ZM31.4066 10.5455H30.4066C30.4066 11.2172 30.6 11.8633 31.0785 12.3724L31.8072 11.6875L32.5358 11.0026C32.4803 10.9435 32.4066 10.8283 32.4066 10.5455H31.4066ZM31.8072 11.6875L31.0822 12.3762C31.5543 12.8732 32.1668 13.1136 32.8384 13.1136V12.1136V11.1136C32.6748 11.1136 32.5998 11.07 32.5322 10.9988L31.8072 11.6875ZM32.8384 12.1136V13.1136C33.2642 13.1136 33.6693 13.0038 34.0445 12.8183L33.6012 11.9219L33.1579 11.0255C33.0161 11.0957 32.9127 11.1136 32.8384 11.1136V12.1136ZM33.6012 11.9219L34.0406 12.8202C34.4753 12.6076 34.8244 12.2861 35.0895 11.8885L34.2575 11.3338L33.4254 10.7791C33.3382 10.9099 33.2499 10.9805 33.1618 11.0236L33.6012 11.9219ZM34.2575 11.3338L35.0854 11.8947C35.4043 11.4239 35.5259 10.8768 35.5259 10.3239H34.5259H33.5259C33.5259 10.5891 33.4686 10.7153 33.4295 10.773L34.2575 11.3338ZM40.2202 6.45455H41.2202V5.45455H40.2202V6.45455ZM40.2202 7.30682V8.30682H41.2202V7.30682H40.2202ZM36.8281 7.30682H35.8281V8.30682H36.8281V7.30682ZM36.8281 6.45455V5.45455H35.8281V6.45455H36.8281ZM37.8168 4.88636V3.88636H36.8168V4.88636H37.8168ZM38.8224 4.88636H39.8224V3.88636H38.8224V4.88636ZM38.946 11.7642L38.081 12.2659L38.087 12.2762L38.0932 12.2864L38.946 11.7642ZM39.2699 12.0455L38.9232 12.9834L38.9354 12.9879L38.9476 12.9921L39.2699 12.0455ZM39.9645 12.0966L40.1225 13.084L40.1416 13.081L40.1606 13.0772L39.9645 12.0966ZM40.1349 12.0625L41.1103 11.8417L40.8949 10.8907L39.9388 11.0819L40.1349 12.0625ZM40.3395 12.9659L40.6906 13.9022L41.5074 13.5959L41.3148 12.7451L40.3395 12.9659ZM40.054 13.0426L39.8491 12.0638L39.8383 12.0661L39.8275 12.0686L40.054 13.0426ZM38.7543 12.902L38.3419 13.813L38.3455 13.8146L38.7543 12.902ZM38.081 12.3438L37.2635 12.9197L37.2679 12.9259L38.081 12.3438ZM40.2202 6.45455H39.2202V7.30682H40.2202H41.2202V6.45455H40.2202ZM40.2202 7.30682V6.30682H36.8281V7.30682V8.30682H40.2202V7.30682ZM36.8281 7.30682H37.8281V6.45455H36.8281H35.8281V7.30682H36.8281ZM36.8281 6.45455V7.45455H40.2202V6.45455V5.45455H36.8281V6.45455ZM37.8168 4.88636V5.88636H38.8224V4.88636V3.88636H37.8168V4.88636ZM38.8224 4.88636H37.8224V11.125H38.8224H39.8224V4.88636H38.8224ZM38.8224 11.125H37.8224C37.8224 11.473 37.8671 11.8972 38.081 12.2659L38.946 11.7642L39.8111 11.2625C39.8407 11.3136 39.841 11.338 39.8352 11.3081C39.8297 11.2798 39.8224 11.2217 39.8224 11.125H38.8224ZM38.946 11.7642L38.0932 12.2864C38.2747 12.5828 38.5471 12.8444 38.9232 12.9834L39.2699 12.0455L39.6165 11.1075C39.6674 11.1263 39.7119 11.1537 39.7466 11.1839C39.7799 11.2128 39.7955 11.2365 39.7989 11.2421L38.946 11.7642ZM39.2699 12.0455L38.9476 12.9921C39.1898 13.0745 39.4397 13.1136 39.6918 13.1136V12.1136V11.1136C39.6484 11.1136 39.6171 11.1073 39.5921 11.0988L39.2699 12.0455ZM39.6918 12.1136V13.1136C39.8304 13.1136 39.9793 13.1069 40.1225 13.084L39.9645 12.0966L39.8065 11.1092C39.8097 11.1086 39.8021 11.11 39.7807 11.1113C39.7598 11.1126 39.7306 11.1136 39.6918 11.1136V12.1136ZM39.9645 12.0966L40.1606 13.0772C40.2316 13.063 40.2884 13.0516 40.3311 13.0431L40.1349 12.0625L39.9388 11.0819C39.8962 11.0904 39.8394 11.1018 39.7684 11.116L39.9645 12.0966ZM40.1349 12.0625L39.1596 12.2833L39.3642 13.1867L40.3395 12.9659L41.3148 12.7451L41.1103 11.8417L40.1349 12.0625ZM40.3395 12.9659L39.9884 12.0296C39.9927 12.028 39.9841 12.0314 39.9575 12.0385C39.932 12.0454 39.8964 12.0539 39.8491 12.0638L40.054 13.0426L40.2588 14.0214C40.401 13.9916 40.553 13.9538 40.6906 13.9022L40.3395 12.9659ZM40.054 13.0426L39.8275 12.0686C39.8064 12.0735 39.7343 12.0852 39.5895 12.0852V13.0852V14.0852C39.8197 14.0852 40.0573 14.0685 40.2805 14.0166L40.054 13.0426ZM39.5895 13.0852V12.0852C39.4536 12.0852 39.314 12.057 39.163 11.9894L38.7543 12.902L38.3455 13.8146C38.74 13.9913 39.1572 14.0852 39.5895 14.0852V13.0852ZM38.7543 12.902L39.1666 11.991C39.0631 11.9441 38.9747 11.8743 38.8941 11.7616L38.081 12.3438L37.2679 12.9259C37.5451 13.3132 37.9056 13.6155 38.3419 13.813L38.7543 12.902ZM38.081 12.3438L38.8984 11.7678C38.8674 11.7237 38.8168 11.6231 38.8168 11.3977H37.8168H36.8168C36.8168 11.9337 36.9423 12.4638 37.2635 12.9197L38.081 12.3438ZM37.8168 11.3977H38.8168V4.88636H37.8168H36.8168V11.3977H37.8168Z" fill="#B33535" mask="url(#path-2-outside-1_0_1)"/>
</svg>
